<svg id="visual" viewBox="0 0 900 600" width="900" height="600" xmlns="http://www.w3.org/2000/svg" xmlns:xlink="http://www.w3.org/1999/xlink" version="1.1"><rect x="0" y="0" width="900" height="600" fill="#000"></rect><defs><linearGradient id="grad1_0" x1="33.3%" y1="0%" x2="100%" y2="100%"><stop offset="20%" stop-color="#000000" stop-opacity="1"></stop><stop offset="80%" stop-color="#000000" stop-opacity="1"></stop></linearGradient></defs><defs><linearGradient id="grad2_0" x1="0%" y1="0%" x2="66.7%" y2="100%"><stop offset="20%" stop-color="#000000" stop-opacity="1"></stop><stop offset="80%" stop-color="#000000" stop-opacity="1"></stop></linearGradient></defs><g transform="translate(900, 0)"><path d="M0 162.2C-20.6 153.8 -41.2 145.4 -55.1 133C-69.1 120.7 -76.4 104.3 -93.3 93.3C-110.3 82.4 -136.8 76.8 -149.9 62.1C-163 47.4 -162.6 23.7 -162.2 0L0 0Z" fill="#ED1C24"></path></g><g transform="translate(0, 600)"><path d="M0 -162.2C21.2 -157.1 42.4 -151.9 58.6 -141.4C74.7 -130.8 85.7 -114.9 101.8 -101.8C117.9 -88.8 139 -78.6 149.9 -62.1C160.8 -45.6 161.5 -22.8 162.2 0L0 0Z" fill="#ED1C24"></path></g></svg>