<svg id="visual" viewBox="0 0 900 600" width="900" height="600" xmlns="http://www.w3.org/2000/svg" xmlns:xlink="http://www.w3.org/1999/xlink" version="1.1"><rect x="0" y="0" width="900" height="600" fill="#ffffff"></rect><defs><linearGradient id="grad1_0" x1="33.3%" y1="0%" x2="100%" y2="100%"><stop offset="20%" stop-color="#ffffff" stop-opacity="1"></stop><stop offset="80%" stop-color="#ffffff" stop-opacity="1"></stop></linearGradient></defs><defs><linearGradient id="grad2_0" x1="0%" y1="0%" x2="66.7%" y2="100%"><stop offset="20%" stop-color="#ffffff" stop-opacity="1"></stop><stop offset="80%" stop-color="#ffffff" stop-opacity="1"></stop></linearGradient></defs><g transform="translate(900, 0)"><path d="M0 189.3C-22.5 175.3 -44.9 161.4 -60.8 146.9C-76.8 132.4 -86.2 117.5 -106.8 106.8C-127.4 96 -159.3 89.5 -174.9 72.4C-190.5 55.3 -189.9 27.7 -189.3 0L0 0Z" fill="#ED1C24"></path></g><g transform="translate(0, 600)"><path d="M0 -189.3C17.1 -170.4 34.3 -151.6 60.5 -146C86.7 -140.4 122 -148 133.8 -133.8C145.7 -119.7 134.2 -83.7 139.5 -57.8C144.8 -31.8 167.1 -15.9 189.3 0L0 0Z" fill="#ED1C24"></path></g></svg>