<svg width="445" height="452" viewBox="0 0 445 452" fill="none" xmlns="http://www.w3.org/2000/svg">
<path d="M120.105 30.7631H36.0272V154.557H120.105V30.7631Z" fill="#E0E0E0"/>
<path d="M115.896 30.7631H31.8175V154.557H115.896V30.7631Z" fill="#F5F5F5"/>
<path d="M105.456 44.1694H42.2661V141.142H105.456V44.1694Z" fill="white"/>
<path d="M105.456 141.15C105.456 141.15 105.456 140.979 105.456 140.671C105.456 140.364 105.456 139.894 105.456 139.297C105.456 138.077 105.456 136.296 105.456 133.982C105.456 129.335 105.456 122.555 105.403 114.003C105.403 96.8997 105.34 72.6905 105.296 44.1693L105.509 44.3863H42.3195L42.542 44.1513C42.542 80.7361 42.542 114.464 42.4975 141.132L42.3195 140.943L88.3058 141.042L101.015 141.087H104.352H105.509H104.388H101.086H88.4215L42.3195 141.187H42.1326V141.006C42.1326 114.338 42.1326 80.6096 42.0881 44.0247V43.7987H42.3284H105.518H105.723V44.0066C105.723 72.5821 105.643 96.8454 105.625 113.976C105.625 122.519 105.625 129.272 105.563 133.864C105.563 136.16 105.563 137.932 105.563 139.135C105.563 139.722 105.563 140.174 105.563 140.491C105.563 140.807 105.456 141.15 105.456 141.15Z" fill="#E0E0E0"/>
<path d="M116.136 30.736C115.698 31.5167 115.195 32.2578 114.632 32.9508C113.662 34.2796 112.273 36.0786 110.689 38.0312C109.105 39.9839 107.628 41.7105 106.533 42.94C105.979 43.6385 105.359 44.2804 104.682 44.8564C105.161 44.1024 105.7 43.3889 106.293 42.723L110.36 37.76L114.401 32.77C114.921 32.0433 115.502 31.3628 116.136 30.736Z" fill="#E0E0E0"/>
<path d="M105.776 140.834C108.918 145.908 112.614 150.606 116.795 154.837L105.776 140.834Z" fill="white"/>
<path d="M116.795 154.837C116.093 154.305 115.449 153.699 114.872 153.029C111.938 149.996 109.319 146.664 107.058 143.085C106.551 142.369 106.121 141.599 105.776 140.789C106.344 141.454 106.862 142.161 107.325 142.904C108.215 144.224 109.55 146.032 111.072 147.958C112.594 149.883 114.045 151.574 115.113 152.794C115.724 153.43 116.287 154.113 116.795 154.837Z" fill="#E0E0E0"/>
<path d="M31.8086 154.457L42.8179 140.653L31.8086 154.457Z" fill="white"/>
<path d="M42.8179 140.653C41.1602 143.097 39.3778 145.45 37.4779 147.705C35.6989 150.052 33.8037 152.306 31.7997 154.457C33.4588 152.015 35.2412 149.662 37.1397 147.406C38.9171 145.058 40.8123 142.804 42.8179 140.653Z" fill="#E0E0E0"/>
<path d="M31.8175 30.736C33.7115 32.8001 35.4941 34.9669 37.1575 37.2267C38.9368 39.3947 40.6005 41.6579 42.1415 44.0067C40.2476 41.9425 38.4649 39.7758 36.8015 37.516C35.0198 35.3499 33.356 33.0865 31.8175 30.736Z" fill="#E0E0E0"/>
<path d="M85.7604 63.8585H64.6051V124.879H85.7604V63.8585Z" fill="#E0E0E0"/>
<path d="M423.747 130.104H353.739V233.178H423.747V130.104Z" fill="#E0E0E0"/>
<path d="M420.24 130.104H350.233V233.178H420.24V130.104Z" fill="#F5F5F5"/>
<path d="M411.554 141.268H358.937V222.013H411.554V141.268Z" fill="white"/>
<path d="M411.545 222.013C411.545 222.013 411.545 221.878 411.545 221.616C411.545 221.353 411.545 220.974 411.545 220.477C411.545 219.455 411.545 217.972 411.545 216.047C411.545 212.178 411.545 206.537 411.5 199.413C411.5 185.175 411.447 165.007 411.42 141.268L411.589 141.449H358.937L359.124 141.259C359.124 171.715 359.124 199.802 359.124 222.004L358.973 221.851L397.243 221.932H407.825H410.601H411.563H410.673H407.923H397.376L358.99 222.013H358.839V221.86C358.839 199.657 358.839 171.57 358.795 141.114V140.925H411.776V141.105C411.776 164.899 411.705 185.094 411.687 199.368C411.687 206.474 411.687 212.096 411.643 215.957C411.643 217.873 411.643 219.347 411.643 220.35C411.643 220.838 411.643 221.254 411.643 221.48C411.643 221.706 411.545 222.013 411.545 222.013Z" fill="#E0E0E0"/>
<path d="M420.445 130.104C420.081 130.743 419.661 131.348 419.19 131.912C418.38 133.015 417.223 134.515 415.906 136.142C414.589 137.77 413.36 139.207 412.444 140.228C411.979 140.807 411.463 141.343 410.904 141.829C411.302 141.189 411.751 140.584 412.248 140.021L415.612 135.871L418.985 131.713C419.425 131.135 419.914 130.597 420.445 130.104Z" fill="#E0E0E0"/>
<path d="M411.812 221.751C414.422 225.976 417.495 229.888 420.97 233.413L411.812 221.751Z" fill="white"/>
<path d="M420.97 233.413C420.388 232.978 419.854 232.481 419.377 231.93C418.154 230.671 416.998 229.346 415.915 227.962C414.825 226.581 413.806 225.145 412.862 223.659C412.447 223.059 412.089 222.42 411.794 221.751C412.27 222.302 412.702 222.892 413.085 223.514C413.859 224.608 414.945 226.118 416.208 227.727C417.472 229.336 418.683 230.737 419.573 231.74C420.081 232.26 420.548 232.819 420.97 233.413Z" fill="#E0E0E0"/>
<path d="M350.224 233.096L359.391 221.607L350.224 233.096Z" fill="white"/>
<path d="M359.391 221.607C358.01 223.64 356.525 225.599 354.941 227.474C353.457 229.428 351.877 231.305 350.206 233.096C351.586 231.062 353.072 229.104 354.656 227.229C356.135 225.271 357.716 223.395 359.391 221.607Z" fill="#E0E0E0"/>
<path d="M350.233 130.104C351.815 131.826 353.301 133.637 354.683 135.528C356.165 137.333 357.552 139.216 358.839 141.169C357.257 139.446 355.772 137.635 354.389 135.745C352.905 133.942 351.517 132.058 350.233 130.104Z" fill="#E0E0E0"/>
<path d="M395.151 157.667H377.538V208.471H395.151V157.667Z" fill="#E0E0E0"/>
<path d="M54.646 328.378C50.2291 325.566 45.2355 323.821 40.05 323.279C37.6737 323.026 35.066 323.099 33.1614 324.563C32.941 324.693 32.7588 324.881 32.6336 325.107C32.5085 325.332 32.4449 325.588 32.4494 325.847C32.5546 326.224 32.7962 326.547 33.1258 326.751C39.0532 331.343 48.0244 331.922 54.6282 328.405" fill="#E0E0E0"/>
<path d="M54.29 327.953C50.9123 325.439 47.7612 322.626 44.8738 319.546C41.9769 316.443 39.941 312.616 38.9731 308.454C38.7857 307.838 38.73 307.189 38.8098 306.55C38.8897 305.91 39.1031 305.296 39.4359 304.747C46.9386 310.705 52.8393 318.398 54.29 327.953Z" fill="#E0E0E0"/>
<path d="M54.5659 328.315C53.8649 324.157 53.9222 319.904 54.735 315.767C55.5726 311.597 57.9235 307.899 61.321 305.407C62.6204 308.481 62.0597 312.034 61.143 315.252C59.7273 320.233 57.524 324.947 54.6193 329.21" fill="#E0E0E0"/>
<path d="M61.9173 341.712C57.4673 342.263 53.5691 344.65 50.2316 347.724C46.8781 350.818 44.5443 354.887 43.5477 359.376C47.9265 359.105 51.6378 355.968 54.3345 352.451C57.0312 348.935 58.9002 345.075 61.855 341.784" fill="#E0E0E0"/>
<path d="M63.5193 343.845C61.7613 339.312 61.145 334.404 61.7262 329.567C62.3075 324.731 64.0679 320.118 66.8479 316.147C69.3844 325.341 68.4588 335.718 63.5193 343.845Z" fill="#E0E0E0"/>
<path d="M73.2381 355.597C69.1564 355.341 65.0907 356.309 61.5462 358.381C58.0017 360.453 55.1349 363.537 53.3021 367.25C53.0618 367.756 52.8393 368.389 53.1686 368.841C53.3422 369.01 53.5536 369.134 53.7845 369.201C54.0155 369.269 54.2592 369.279 54.4947 369.23C58.4196 368.977 61.8995 366.572 64.7742 363.806C67.6489 361.04 70.1142 357.912 73.3271 355.552" fill="#E0E0E0"/>
<path d="M72.9266 354.955C70.8331 348.116 70.7034 340.813 72.5528 333.901C73.2826 331.189 74.5108 328.333 77.0028 327.058C77.1022 326.994 77.2133 326.951 77.3294 326.93C77.4455 326.91 77.5644 326.914 77.6792 326.941C77.8799 327.048 78.0327 327.229 78.1064 327.447C78.9385 329.342 79.2992 331.416 79.1566 333.485C79.0237 335.547 78.7261 337.593 78.2666 339.606C77.4923 343.339 77.074 347.362 75.0537 350.58C74.5812 351.359 74.1533 352.165 73.7721 352.994C73.3894 353.816 73.3894 354.106 73.0423 354.757" fill="#E0E0E0"/>
<path d="M98.6476 358.888C96.743 351.52 98.7633 342.616 103.338 336.559C103.667 336.116 104.121 335.655 104.664 335.655C105.554 335.737 105.723 336.876 105.687 337.725C105.348 345.312 102.908 352.647 98.6476 358.888Z" fill="#E0E0E0"/>
<path d="M100.97 360.461C109.773 362.793 119.883 360.524 127.208 355.037C122.806 352.791 117.772 352.168 112.968 353.274C108.224 354.368 103.89 356.529 100.935 360.461" fill="#E0E0E0"/>
<path d="M102.928 355.561C107.859 347.425 117.311 342.056 126.736 341.576C125.65 345.464 122.5 348.492 118.948 350.318C115.397 352.144 111.428 352.94 107.521 353.717C105.999 354.015 103.907 354.341 102.928 355.525" fill="#E0E0E0"/>
<path d="M99.1371 331.768C100.472 327.121 101.807 322.43 102.181 317.602C102.555 312.775 101.869 307.731 99.4041 303.59C94.8028 312.63 94.3311 323.225 99.0036 332.256" fill="#E0E0E0"/>
<path d="M114.65 323.804C120.043 313.86 131.035 305.914 142.16 304.82C137.87 315.668 126.14 324.066 114.65 323.804Z" fill="#E0E0E0"/>
<path d="M111.25 325.756C119.26 326.995 126.14 332.211 133.642 335.366C135.216 336.139 136.963 336.479 138.707 336.351C139.516 336.341 140.303 336.078 140.962 335.599C141.62 335.121 142.118 334.448 142.389 333.673C142.66 332.898 142.69 332.057 142.475 331.263C142.261 330.47 141.812 329.763 141.19 329.237C140.129 328.235 138.878 327.463 137.514 326.968C129.335 323.505 120.559 323.424 111.944 325.521" fill="#E0E0E0"/>
<path d="M106.613 331.479C108.393 332.003 109.052 332.961 110.493 334.191C115.406 338.434 121.218 341.466 127.475 343.05C128.124 343.213 128.97 343.276 129.299 342.688C129.628 342.101 129.219 341.531 128.854 341.07C126.127 337.818 122.584 335.375 118.601 334.001C114.685 332.518 111.286 330.737 106.613 331.117" fill="#E0E0E0"/>
<path d="M101.362 296.901C104.659 299.986 108.554 302.337 112.798 303.803C117.042 305.27 121.541 305.819 126.006 305.416C126.415 305.416 126.811 305.272 127.128 305.01C127.742 304.323 127.003 303.265 126.238 302.686C119.002 296.955 110.218 294.55 101.318 296.901" fill="#E0E0E0"/>
<path d="M107.583 294.586C111.946 291.326 117.006 289.16 122.35 288.265C127.694 287.369 133.17 287.77 138.333 289.434C134.461 293.312 129.086 295.391 123.683 295.97C118.278 296.469 112.829 296.001 107.583 294.586Z" fill="#E0E0E0"/>
<path d="M105.109 278.694C104.406 271.354 104.86 265.559 104.361 258.182C104.361 257.586 104.201 256.881 103.658 256.673C102.902 256.374 102.27 257.315 102.021 258.101C100.966 261.521 100.695 265.141 101.229 268.683C101.762 272.226 103.087 275.597 105.1 278.54" fill="#E0E0E0"/>
<path d="M104.593 279.508C109.497 276.434 113.172 272.411 116.572 267.683C118.931 264.402 120.933 260.451 120.39 256.429C117.071 256.356 113.911 258.237 111.748 260.786C109.685 263.442 108.188 266.505 107.352 269.781C106.391 273.017 105.714 276.335 104.593 279.508Z" fill="#E0E0E0"/>
<path d="M116.359 276.19C127.14 272.137 137.122 266.161 145.835 258.544C142.275 257.107 138.279 257.965 134.764 259.448C126.754 262.748 120.15 268.307 116.207 276.154" fill="#E0E0E0"/>
<path d="M107.904 283.531C113.341 284.127 118.868 284.525 124.271 283.612C129.673 282.699 134.586 280.574 139.543 278.45C139.977 278.328 140.349 278.044 140.584 277.655C140.664 277.421 140.671 277.168 140.604 276.93C140.537 276.692 140.4 276.481 140.211 276.326C139.831 276.018 139.386 275.805 138.911 275.702C133.518 274.174 127.706 274.888 122.402 276.705C117.348 278.46 112.489 280.748 107.904 283.531Z" fill="#E0E0E0"/>
<path d="M76.8337 297.154C73.1224 289.542 73.3627 280.656 76.5667 272.818C78.8273 276.308 79.1032 280.755 78.6938 284.914C78.2844 289.072 77.0295 293.348 76.9138 297.57" fill="#E0E0E0"/>
<path d="M62.0063 289.551C57.3588 289.489 52.7497 290.413 48.4739 292.264C44.1982 294.114 40.3499 296.852 37.1753 300.3C41.7944 301.041 46.5648 299.83 50.7656 297.741C54.9664 295.653 58.7133 292.724 62.4246 289.813" fill="#E0E0E0"/>
<path d="M52.0383 286.17C47.4993 285.791 43.1383 285.221 38.7773 286.577C34.4163 287.933 30.4558 291.016 28.6758 295.283C32.9648 295.64 37.2694 294.815 41.1358 292.896C44.9707 290.988 48.6312 288.737 52.0739 286.17" fill="#E0E0E0"/>
<path d="M66.7945 286.324C62.7183 283.612 58.5264 280.846 53.7827 279.716C49.039 278.586 43.5299 279.426 40.2191 283.06C44.0639 285.357 48.7275 285.619 53.1775 285.619C57.6275 285.619 63.101 285.565 67.3018 287.074" fill="#E0E0E0"/>
<path d="M66.8212 286.568C59.8436 279.616 57.2003 267.123 60.0127 257.64C65.5064 266.193 67.9124 276.416 66.8212 286.568Z" fill="#E0E0E0"/>
<path d="M85.9918 266.834C87.309 263.733 88.2346 260.506 89.4183 257.306C90.4933 254.099 92.1439 251.123 94.2866 248.528C96.4741 245.931 99.5766 244.308 102.928 244.008C101.857 248.8 99.8127 253.312 96.9271 257.256C94.0415 261.201 90.3777 264.49 86.1698 266.915" fill="#E0E0E0"/>
<path d="M82.5208 270.938C80.3492 267.9 77.8305 263.769 74.8846 261.5C71.9387 259.231 68.085 257.884 64.4894 258.725C66.3529 262.045 68.953 264.877 72.0832 266.997C75.2134 269.117 78.7872 270.467 82.5208 270.938Z" fill="#E0E0E0"/>
<path d="M83.215 267.087C81.6549 263.457 80.5025 259.66 79.7796 255.769C79.2011 251.863 79.5571 247.678 81.5596 244.27C85.3866 251.619 86.6148 259.502 83.4464 267.168" fill="#E0E0E0"/>
<path d="M86.0274 244.27C88.199 236.984 94.7672 231.614 101.86 229.155C102.737 228.791 103.686 228.645 104.628 228.73C105.1 228.782 105.546 228.974 105.911 229.283C106.275 229.592 106.541 230.003 106.675 230.466C106.934 231.704 105.928 232.816 104.976 233.639C99.4335 238.449 92.9871 242.066 86.0274 244.27Z" fill="#E0E0E0"/>
<path d="M86.1075 238.312C86.3834 233.612 86.6682 228.848 88.1723 224.391C89.6764 219.934 92.6223 215.767 96.7964 213.823C97.5173 218.569 95.4525 223.288 92.9694 227.383C90.4863 231.478 87.487 235.32 85.9918 239.876" fill="#E0E0E0"/>
<path d="M85.9918 241.54C84.2118 236.233 84.016 229.489 80.8832 224.861C78.7027 221.625 75.1961 219.437 73.3093 216.002C72.1683 219.287 72.3278 222.895 73.7543 226.063C75.1769 229.194 77.1356 232.044 79.5393 234.479C81.8622 236.993 83.838 238.882 85.9918 241.54Z" fill="#E0E0E0"/>
<path d="M86.0274 397.905C85.8939 397.905 85.7693 362.486 85.7604 318.805C85.7515 275.123 85.8583 239.696 85.9918 239.696C86.1253 239.696 86.2588 275.105 86.2677 318.805C86.2766 362.504 86.1698 397.905 86.0274 397.905Z" fill="#E0E0E0"/>
<path d="M116.501 291.802C116.083 292.016 115.645 292.186 115.193 292.308L111.588 293.547C108.544 294.595 104.361 296.123 99.8224 298.013C95.2834 299.902 91.1004 301.556 88.6885 303.681C87.7258 304.495 86.9588 305.521 86.4457 306.682C86.0986 307.514 86.0363 308.029 85.9918 308.02C85.9705 307.897 85.9705 307.772 85.9918 307.649C86.0414 307.294 86.1279 306.946 86.2499 306.61C86.7057 305.377 87.4548 304.277 88.4304 303.409C89.8854 302.156 91.5137 301.127 93.2631 300.354C95.2033 299.45 97.3393 298.483 99.6177 297.533C104.166 295.644 108.375 294.162 111.455 293.194C112.994 292.715 114.249 292.354 115.122 292.119C115.572 291.974 116.033 291.868 116.501 291.802Z" fill="#E0E0E0"/>
<path d="M126.496 266.888C126.385 267.033 126.259 267.166 126.122 267.286L125.009 268.352L120.826 272.203L106.925 284.76C101.496 289.669 96.8053 294.36 93.5746 297.886C91.9459 299.649 90.6643 301.113 89.7921 302.135L88.7775 303.301C88.5461 303.572 88.4126 303.708 88.4037 303.69C88.4825 303.527 88.5812 303.375 88.6974 303.238C88.911 302.958 89.2225 302.533 89.6408 302.008C90.4685 300.942 91.7145 299.441 93.3076 297.642C97.5088 292.989 101.947 288.562 106.604 284.38C112.051 279.481 117.008 275.087 120.613 271.914L124.894 268.181L126.077 267.186C126.38 266.978 126.478 266.87 126.496 266.888Z" fill="#E0E0E0"/>
<path d="M101.068 289.768C100.926 289.705 102.056 287.056 103.187 283.684C104.317 280.312 104.86 277.483 104.967 277.51C104.839 279.677 104.386 281.811 103.623 283.838C103.135 285.287 102.571 286.709 101.932 288.096C101.721 288.691 101.43 289.254 101.068 289.768Z" fill="#E0E0E0"/>
<path d="M86.063 311.211C85.7524 310.912 85.4722 310.582 85.2264 310.226L83.0815 307.432C81.3015 305.073 78.7917 301.809 76.006 298.239C73.2203 294.668 70.666 291.468 68.797 289.153L66.6076 286.396C66.3195 286.075 66.0659 285.723 65.8511 285.348C66.1776 285.617 66.4758 285.92 66.7411 286.252C67.2929 286.866 68.085 287.77 69.0462 288.9C70.9775 291.16 73.5852 294.324 76.3798 297.94C79.1744 301.556 81.6219 304.811 83.3485 307.233C84.2385 308.445 84.906 309.43 85.3688 310.126C85.6381 310.461 85.8708 310.825 86.063 311.211Z" fill="#E0E0E0"/>
<path d="M79.3791 302.496C78.035 300.979 77.0758 299.151 76.5845 297.172C76.0572 295.435 75.8402 293.617 75.9437 291.802H76.1662C76.0683 292.218 75.9971 292.435 75.9526 292.426C75.9081 292.417 75.9526 292.191 75.9526 291.766H76.1751C76.29 293.535 76.5884 295.286 77.0651 296.991C77.698 298.883 78.4715 300.724 79.3791 302.496Z" fill="#E0E0E0"/>
<path d="M70.755 291.477C70.1535 291.008 69.4955 290.619 68.797 290.319C67.0408 289.787 65.1935 289.64 63.3769 289.886C61.5335 290.03 59.7054 290.332 57.9123 290.79C57.1752 291.024 56.4228 291.205 55.6606 291.332C56.3322 290.927 57.0575 290.623 57.8144 290.428C59.609 289.867 61.4599 289.512 63.3324 289.37C65.2199 289.116 67.1401 289.327 68.9305 289.985C69.6919 290.25 70.3376 290.778 70.755 291.477Z" fill="#E0E0E0"/>
<path d="M68.708 288.801C68.708 288.882 67.5688 288.34 65.7176 287.698C63.2994 286.863 60.7879 286.337 58.2416 286.134C55.696 285.945 53.1372 286.075 50.6232 286.523C48.6919 286.875 47.526 287.246 47.4993 287.165C47.7449 287.01 48.0119 286.895 48.2914 286.821C49.0312 286.558 49.7862 286.341 50.552 286.17C55.6581 285.026 60.9834 285.438 65.86 287.354C66.5851 287.653 67.2923 287.994 67.9782 288.376C68.2401 288.482 68.4858 288.625 68.708 288.801Z" fill="#E0E0E0"/>
<path d="M85.9918 277.528C85.1042 275.007 84.3759 272.432 83.8113 269.817C83.08 267.248 82.5151 264.632 82.1203 261.988C83.003 264.51 83.7313 267.086 84.3008 269.699C85.027 272.27 85.5919 274.885 85.9918 277.528Z" fill="#E0E0E0"/>
<path d="M86.1342 277.528C85.4337 275.933 84.6248 274.389 83.7134 272.909C82.6828 271.52 81.4871 270.266 80.1534 269.175C80.6592 269.305 81.1283 269.553 81.524 269.898C82.5355 270.646 83.4144 271.563 84.1228 272.61C85.2121 274.038 85.9065 275.736 86.1342 277.528Z" fill="#E0E0E0"/>
<path d="M86.0274 379.029C85.974 379.029 85.8761 378.17 85.4756 376.67C84.9035 374.553 84.1253 372.5 83.1527 370.541C80.7408 365.532 76.3531 359.195 70.7817 352.849C68.0227 349.64 65.3438 346.621 63.0743 343.728C61.0344 341.181 59.1897 338.479 57.5563 335.646C56.4611 333.734 55.5319 331.729 54.7795 329.653C54.5214 328.911 54.3345 328.342 54.2277 327.935C54.1597 327.739 54.1119 327.536 54.0853 327.329C54.0853 327.329 54.3879 328.134 54.9753 329.58C55.7903 331.611 56.7511 333.578 57.85 335.465C59.5152 338.253 61.3772 340.915 63.4214 343.43C65.6998 346.295 68.3787 349.297 71.1466 352.47C76.7358 358.843 81.1057 365.261 83.4553 370.342C84.4045 372.339 85.1415 374.433 85.6536 376.588C85.8138 377.357 85.9206 377.953 85.9651 378.396C86.0077 378.604 86.0286 378.817 86.0274 379.029Z" fill="#E0E0E0"/>
<path d="M113.564 347.434C113.101 347.74 112.62 348.015 112.122 348.257C110.817 349.001 109.568 349.841 108.384 350.77C106.629 352.143 104.983 353.654 103.462 355.29C101.736 357.143 99.9648 359.286 98.1225 361.618C94.4913 366.247 91.1004 370.333 89.0712 373.596C88.0388 375.214 87.2912 376.579 86.8017 377.538C86.5673 378.049 86.2997 378.544 86.0007 379.02C86.0248 378.876 86.0698 378.735 86.1342 378.604C86.241 378.333 86.3923 377.944 86.6237 377.456C87.2544 376.062 87.9708 374.709 88.7686 373.406C90.7444 370.061 94.1086 365.912 97.7309 361.302C99.5109 358.987 101.344 356.836 103.071 354.974C104.619 353.323 106.304 351.81 108.108 350.454C109.326 349.541 110.618 348.737 111.971 348.049C112.451 347.805 112.861 347.66 113.101 347.543C113.247 347.476 113.404 347.439 113.564 347.434Z" fill="#E0E0E0"/>
<path d="M114.107 357.686C113.101 357.909 112.081 358.057 111.054 358.129C108.605 358.391 106.183 358.875 103.818 359.575C101.485 360.353 99.2955 361.52 97.3393 363.028C95.853 364.204 95.1499 365.171 95.0787 365.117C95.0075 365.062 95.1944 364.836 95.5326 364.402C96.0041 363.798 96.5349 363.244 97.1168 362.748C99.0539 361.131 101.277 359.903 103.667 359.132C106.059 358.406 108.526 357.963 111.019 357.812C112.041 357.668 113.076 357.625 114.107 357.686Z" fill="#E0E0E0"/>
<path d="M95.9687 363.996C95.8085 363.896 97.1791 361.763 98.2471 358.897C99.3151 356.031 99.4842 353.473 99.6622 353.473C99.7363 354.027 99.7183 354.589 99.6088 355.136C99.4639 356.472 99.1651 357.786 98.7188 359.051C98.256 360.318 97.6592 361.53 96.9388 362.667C96.6842 363.157 96.357 363.606 95.9687 363.996Z" fill="#E0E0E0"/>
<path d="M122.482 319.917C122.334 320.026 122.172 320.114 122.001 320.179L120.568 320.839C119.936 321.119 119.171 321.462 118.317 321.923C117.462 322.384 116.448 322.827 115.397 323.478L113.733 324.437C113.163 324.78 112.585 325.178 111.953 325.567C110.725 326.317 109.497 327.248 108.188 328.197C105.396 330.338 102.766 332.689 100.321 335.23C97.9101 337.801 95.6881 340.547 93.6725 343.448C92.7825 344.813 91.8925 346.096 91.2072 347.371C90.8512 347.995 90.4774 348.591 90.1659 349.179L89.2759 350.897C88.6796 351.981 88.2613 353.021 87.843 353.916C87.4247 354.811 87.1043 355.588 86.8551 356.23L86.33 357.722C86.2675 357.896 86.1869 358.062 86.0897 358.219C86.111 358.035 86.159 357.855 86.2321 357.686C86.3656 357.288 86.5347 356.782 86.7483 356.167C86.9619 355.552 87.2556 354.711 87.6383 353.807C88.021 352.903 88.4393 351.846 89.0089 350.743C89.2848 350.191 89.5785 349.604 89.8989 348.998C90.2193 348.392 90.5753 347.787 90.9313 347.19C91.6166 345.897 92.4888 344.605 93.3788 343.222C95.3827 340.279 97.6085 337.498 100.036 334.905C102.507 332.352 105.167 329.994 107.993 327.854C109.319 326.95 110.565 325.982 111.811 325.241C112.425 324.861 113.003 324.464 113.591 324.138L115.282 323.234C116.35 322.61 117.373 322.167 118.245 321.734C119.118 321.3 119.901 320.974 120.542 320.73L122.01 320.161C122.158 320.062 122.316 319.98 122.482 319.917Z" fill="#E0E0E0"/>
<path d="M100.695 334.751C100.897 334.037 101.314 333.405 101.887 332.943C103.232 331.761 104.942 331.096 106.72 331.063C108.463 331.056 110.19 331.4 111.802 332.075C112.486 332.293 113.134 332.613 113.724 333.025C113.029 332.877 112.348 332.671 111.686 332.41C110.092 331.863 108.421 331.582 106.738 331.578C105.064 331.61 103.445 332.187 102.119 333.223C101.605 333.694 101.129 334.204 100.695 334.751Z" fill="#E0E0E0"/>
<path d="M97.4372 338.159C98.0797 336.717 98.5402 335.199 98.8078 333.639C98.9053 332.056 98.8006 330.467 98.4963 328.911C98.7873 329.299 98.9827 329.751 99.0659 330.231C99.6571 332.514 99.3774 334.939 98.2827 337.02C97.9 337.798 97.4817 338.195 97.4372 338.159Z" fill="#E0E0E0"/>
<path d="M61.944 384.101C62.7005 397.661 66.7144 411.401 72.891 425.323H99.7512C105.643 411.546 109.381 397.796 110.048 384.101H61.944Z" fill="#E0E0E0"/>
<path d="M105.687 406.004C105.687 406.149 96.8498 406.258 85.9384 406.258C75.027 406.258 66.1893 406.149 66.1893 406.004C66.1893 405.86 75.027 405.751 85.9384 405.751C96.8498 405.751 105.687 405.896 105.687 406.004Z" fill="#FAFAFA"/>
<path d="M105.091 410.913C105.091 411.049 96.7964 411.166 86.5703 411.166C76.3442 411.166 68.0583 411.049 68.0583 410.913C68.0583 410.778 76.3442 410.651 86.5703 410.651C96.7964 410.651 105.091 410.769 105.091 410.913Z" fill="#FAFAFA"/>
<path d="M73.3182 392.987C73.6623 397.171 73.6623 401.377 73.3182 405.561C72.9859 401.377 72.9859 397.172 73.3182 392.987Z" fill="#FAFAFA"/>
<path d="M87.7184 392.987C88.0507 397.319 88.0507 401.672 87.7184 406.004C87.3742 401.672 87.3742 397.319 87.7184 392.987Z" fill="#FAFAFA"/>
<path d="M101.229 392.878C101.561 397.299 101.561 401.738 101.229 406.158C100.884 401.738 100.884 397.298 101.229 392.878Z" fill="#FAFAFA"/>
<path d="M109.194 392.987C109.194 393.132 98.8167 393.249 86.0541 393.249C73.2915 393.249 62.9141 393.132 62.9141 392.987C62.9141 392.842 73.2826 392.734 86.0541 392.734C98.8256 392.734 109.194 392.851 109.194 392.987Z" fill="#FAFAFA"/>
<path d="M407.967 425.721C407.967 425.856 324.921 425.965 222.509 425.965C120.097 425.965 37.0329 425.856 37.0329 425.721C37.0329 425.585 120.061 425.486 222.509 425.486C324.957 425.486 407.967 425.594 407.967 425.721Z" fill="#263238"/>
<path d="M355.644 41.7828H112.932C107.255 41.7828 102.653 46.4575 102.653 52.224V415.099C102.653 420.865 107.255 425.54 112.932 425.54H355.644C361.321 425.54 365.923 420.865 365.923 415.099V52.224C365.923 46.4575 361.321 41.7828 355.644 41.7828Z" fill="#263238"/>
<path d="M357.121 69.165H110.458V389.651H357.121V69.165Z" fill="white"/>
<path d="M245.257 407.134C245.169 406.222 245.023 405.316 244.821 404.422C244.441 402.939 243.76 401.552 242.822 400.351C241.883 399.15 240.708 398.162 239.371 397.449C238.035 396.737 236.566 396.316 235.06 396.214C233.554 396.112 232.044 396.33 230.626 396.856C229.652 397.212 228.737 397.715 227.911 398.348C227.037 398.993 226.27 399.778 225.642 400.671C224.284 402.537 223.552 404.796 223.552 407.116C223.552 409.437 224.284 411.696 225.642 413.562C226.273 414.45 227.039 415.231 227.911 415.876C228.735 416.512 229.651 417.015 230.626 417.368C232.433 418.038 234.384 418.207 236.277 417.856C237.929 417.556 239.488 416.862 240.825 415.831C242.787 414.339 244.195 412.217 244.821 409.81C245.023 408.917 245.169 408.011 245.257 407.098C245.279 407.336 245.279 407.575 245.257 407.812C245.259 408.1 245.238 408.387 245.195 408.671C245.154 409.064 245.085 409.454 244.99 409.837C244.489 411.93 243.408 413.832 241.875 415.319C240.342 416.806 238.42 417.815 236.339 418.227C234.378 418.606 232.353 418.444 230.474 417.756C228.395 416.991 226.585 415.62 225.268 413.815C223.852 411.869 223.088 409.513 223.088 407.094C223.088 404.674 223.852 402.318 225.268 400.373C226.585 398.568 228.395 397.197 230.474 396.431C232.354 395.748 234.378 395.586 236.339 395.961C238.42 396.372 240.342 397.381 241.875 398.868C243.408 400.355 244.489 402.258 244.99 404.35C245.085 404.734 245.153 405.123 245.195 405.516C245.241 405.815 245.261 406.118 245.257 406.42C245.279 406.658 245.279 406.897 245.257 407.134Z" fill="#455A64"/>
<path d="M272.847 52.8387H195.729C195.129 52.8387 194.643 53.3325 194.643 53.9416V55.9756C194.643 56.5847 195.129 57.0785 195.729 57.0785H272.847C273.447 57.0785 273.933 56.5847 273.933 55.9756V53.9416C273.933 53.3325 273.447 52.8387 272.847 52.8387Z" fill="#455A64"/>
<path d="M275.633 117.556H215.157V191.865H275.633V117.556Z" fill="#FAFAFA"/>
<path d="M275.633 191.865C275.633 191.865 275.633 191.738 275.633 191.503C275.633 191.268 275.633 190.916 275.633 190.464C275.633 189.56 275.633 188.186 275.633 186.432C275.633 182.906 275.633 177.762 275.58 171.236C275.58 158.191 275.517 139.641 275.473 117.556L275.678 117.764H215.211L215.38 117.52C215.38 144.992 215.38 170.549 215.38 191.829L215.184 191.639L259.034 191.738L271.299 191.783H274.538H275.66C275.66 191.783 275.304 191.783 274.583 191.783H271.379L259.159 191.838L215.184 191.937H214.988V191.738C214.988 170.458 214.988 144.902 214.988 117.429V117.194H215.229H275.695H275.9V117.52C275.9 139.659 275.829 158.254 275.802 171.335C275.802 177.835 275.758 182.969 275.749 186.486C275.749 188.222 275.749 189.56 275.749 190.473C275.749 190.916 275.749 191.25 275.749 191.494C275.749 191.738 275.633 191.865 275.633 191.865Z" fill="#EBEBEB"/>
<path d="M357.121 69.165H110.458V92.8137H357.121V69.165Z" fill="#E0E0E0"/>
<path d="M125.944 81.4051C125.913 81.9732 125.718 82.5195 125.384 82.9765C125.051 83.4335 124.592 83.7812 124.066 83.9765C123.54 84.1718 122.969 84.2062 122.424 84.0754C121.879 83.9446 121.383 83.6545 120.999 83.2407C120.614 82.827 120.357 82.3079 120.26 81.7475C120.163 81.1872 120.23 80.6102 120.452 80.0879C120.674 79.5656 121.042 79.1209 121.51 78.8087C121.979 78.4966 122.527 78.3307 123.087 78.3315C123.474 78.3421 123.854 78.43 124.207 78.5903C124.56 78.7506 124.878 78.9801 125.144 79.2657C125.409 79.5513 125.617 79.8873 125.754 80.2544C125.891 80.6215 125.956 81.0126 125.944 81.4051Z" fill="#263238"/>
<path d="M136.57 81.4051C136.539 81.9732 136.345 82.5195 136.011 82.9765C135.677 83.4335 135.219 83.7812 134.693 83.9765C134.167 84.1718 133.596 84.2062 133.051 84.0754C132.505 83.9446 132.01 83.6545 131.625 83.2407C131.241 82.827 130.984 82.3079 130.887 81.7475C130.79 81.1872 130.856 80.6102 131.078 80.0879C131.301 79.5656 131.669 79.1209 132.137 78.8087C132.605 78.4966 133.153 78.3307 133.714 78.3315C134.493 78.3552 135.232 78.6921 135.768 79.2683C136.303 79.8445 136.592 80.613 136.57 81.4051Z" fill="#263238"/>
<path d="M147.197 81.4051C147.166 81.9732 146.971 82.5195 146.638 82.9765C146.304 83.4335 145.846 83.7812 145.319 83.9765C144.793 84.1718 144.222 84.2062 143.677 84.0754C143.132 83.9446 142.637 83.6545 142.252 83.2407C141.867 82.827 141.611 82.3079 141.513 81.7475C141.416 81.1872 141.483 80.6102 141.705 80.0879C141.927 79.5656 142.295 79.1209 142.764 78.8087C143.232 78.4966 143.78 78.3307 144.34 78.3315C145.12 78.3552 145.859 78.6921 146.394 79.2683C146.93 79.8445 147.219 80.613 147.197 81.4051Z" fill="#263238"/>
<path d="M273.506 101.257H217.285C216.11 101.257 215.157 102.224 215.157 103.418V116.254C215.157 117.448 216.11 118.415 217.285 118.415H273.506C274.681 118.415 275.633 117.448 275.633 116.254V103.418C275.633 102.224 274.681 101.257 273.506 101.257Z" fill="#FF0000"/>
<path d="M273.515 118.424C274.021 118.385 274.501 118.182 274.885 117.845C275.108 117.637 275.284 117.382 275.401 117.098C275.518 116.814 275.573 116.508 275.562 116.2C275.562 115.45 275.562 114.591 275.562 113.624C275.562 111.671 275.562 109.294 275.562 106.545C275.562 105.858 275.562 105.144 275.562 104.403C275.562 104.041 275.562 103.653 275.562 103.291C275.538 102.932 275.421 102.586 275.224 102.288C275.011 101.973 274.718 101.723 274.376 101.564C274.035 101.405 273.657 101.342 273.283 101.384H270.783L217.383 101.456C217.092 101.456 216.806 101.524 216.545 101.654C216.284 101.784 216.056 101.973 215.878 102.206C215.707 102.443 215.586 102.714 215.522 103.002C215.5 103.303 215.5 103.605 215.522 103.906V115.423C215.441 116.004 215.525 116.596 215.763 117.131C215.895 117.372 216.076 117.581 216.294 117.744C216.512 117.908 216.761 118.023 217.027 118.08C217.322 118.116 217.621 118.116 217.917 118.08H227.546L251.576 118.126L267.765 118.207H272.162H273.31C273.44 118.195 273.571 118.195 273.702 118.207H273.31H272.162L267.765 118.252L251.576 118.325L227.546 118.379H217.747C217.432 118.391 217.116 118.373 216.804 118.325C216.475 118.255 216.164 118.115 215.893 117.914C215.621 117.713 215.395 117.455 215.229 117.158C215.068 116.856 214.971 116.524 214.944 116.182C214.944 115.829 214.944 115.549 214.944 115.224C214.944 112.729 214.944 110.189 214.944 107.603V103.96C214.914 103.62 214.914 103.278 214.944 102.938C215.014 102.579 215.167 102.242 215.389 101.953C215.612 101.668 215.897 101.438 216.221 101.282C216.544 101.125 216.899 101.045 217.258 101.049L270.658 101.112H273.23C273.65 101.071 274.073 101.143 274.457 101.323C274.84 101.502 275.169 101.782 275.411 102.134C275.642 102.473 275.778 102.87 275.802 103.282C275.802 103.68 275.802 104.041 275.802 104.412C275.802 105.153 275.802 105.867 275.802 106.554C275.802 109.266 275.802 111.68 275.758 113.633C275.758 114.6 275.758 115.441 275.758 116.209C275.761 116.534 275.695 116.856 275.565 117.152C275.434 117.449 275.242 117.713 275.001 117.927C274.704 118.183 274.344 118.352 273.96 118.415C273.813 118.446 273.662 118.449 273.515 118.424Z" fill="#F5F5F5"/>
<path d="M343.762 101.257H287.541C286.366 101.257 285.414 102.224 285.414 103.418V116.254C285.414 117.448 286.366 118.415 287.541 118.415H343.762C344.937 118.415 345.89 117.448 345.89 116.254V103.418C345.89 102.224 344.937 101.257 343.762 101.257Z" fill="#F5F5F5"/>
<path d="M343.771 118.424C344.278 118.385 344.758 118.182 345.142 117.845C345.366 117.637 345.543 117.383 345.662 117.099C345.78 116.815 345.836 116.508 345.827 116.2C345.827 115.447 345.827 114.588 345.827 113.624C345.827 111.671 345.827 109.294 345.827 106.545C345.827 105.858 345.827 105.144 345.827 104.403C345.827 104.041 345.827 103.653 345.827 103.291C345.807 102.931 345.69 102.584 345.489 102.288C345.276 101.973 344.983 101.723 344.642 101.564C344.3 101.405 343.923 101.342 343.549 101.384H340.959L287.559 101.456C287.269 101.456 286.982 101.524 286.721 101.654C286.461 101.784 286.233 101.973 286.055 102.206C285.883 102.443 285.762 102.714 285.699 103.002C285.677 103.303 285.677 103.605 285.699 103.906V115.423C285.618 116.004 285.701 116.596 285.939 117.131C286.072 117.371 286.253 117.579 286.471 117.743C286.689 117.907 286.938 118.022 287.203 118.08C287.499 118.116 287.797 118.116 288.093 118.08H297.723L321.753 118.126L337.942 118.207H342.338H343.487C343.617 118.195 343.748 118.195 343.878 118.207H343.487H342.338L337.942 118.252L321.753 118.325L297.723 118.379H288.004C287.689 118.391 287.373 118.373 287.061 118.325C286.732 118.255 286.421 118.115 286.149 117.914C285.878 117.713 285.651 117.455 285.485 117.158C285.325 116.856 285.228 116.524 285.201 116.182C285.201 115.829 285.201 115.549 285.201 115.224C285.201 112.729 285.201 110.189 285.201 107.603V103.96C285.185 103.619 285.2 103.277 285.245 102.938C285.319 102.58 285.471 102.244 285.69 101.953C285.913 101.668 286.198 101.438 286.522 101.282C286.845 101.125 287.2 101.045 287.559 101.049L340.959 101.112H343.46C343.88 101.071 344.303 101.143 344.687 101.323C345.07 101.502 345.399 101.782 345.64 102.134C345.872 102.473 346.008 102.87 346.032 103.282C346.032 103.68 346.032 104.041 346.032 104.412C346.032 105.153 346.032 105.867 346.032 106.554C346.032 109.266 346.032 111.68 345.987 113.633C345.987 114.6 345.987 115.441 345.987 116.209C345.991 116.534 345.925 116.856 345.794 117.152C345.664 117.449 345.472 117.713 345.231 117.927C344.934 118.183 344.574 118.352 344.19 118.415C344.052 118.443 343.91 118.446 343.771 118.424Z" fill="#263238"/>
<path d="M158.318 163.982C169.331 160.63 175.584 148.844 172.284 137.658C168.984 126.471 157.381 120.12 146.368 123.472C135.355 126.824 129.102 138.609 132.402 149.796C135.702 160.982 147.305 167.334 158.318 163.982Z" fill="#E0E0E0"/>
<path d="M179.896 191.648C179.896 191.775 167.56 191.883 152.306 191.883C137.051 191.883 124.716 191.775 124.716 191.648C124.716 191.521 137.051 191.413 152.306 191.413C167.56 191.413 179.896 191.512 179.896 191.648Z" fill="#263238"/>
<path d="M179.896 206.022C179.896 206.157 167.56 206.257 152.306 206.257C137.051 206.257 124.716 206.157 124.716 206.022C124.716 205.886 137.051 205.786 152.306 205.786C167.56 205.786 179.896 205.895 179.896 206.022Z" fill="#263238"/>
<path d="M179.896 220.404C179.896 220.54 167.56 220.639 152.306 220.639C137.051 220.639 124.716 220.54 124.716 220.404C124.716 220.269 137.051 220.169 152.306 220.169C167.56 220.169 179.896 220.278 179.896 220.404Z" fill="#263238"/>
<path d="M179.896 234.787C179.896 234.913 167.56 235.022 152.306 235.022C137.051 235.022 124.716 234.913 124.716 234.787C124.716 234.66 137.051 234.552 152.306 234.552C167.56 234.552 179.896 234.66 179.896 234.787Z" fill="#263238"/>
<path d="M137.209 269.54C140.93 267.966 142.689 263.626 141.139 259.847C139.588 256.068 135.316 254.28 131.595 255.855C127.875 257.43 126.115 261.77 127.665 265.549C129.216 269.328 133.488 271.115 137.209 269.54Z" fill="#E0E0E0"/>
<path d="M137.204 300.65C140.925 299.075 142.684 294.735 141.134 290.956C139.584 287.177 135.311 285.39 131.59 286.964C127.87 288.539 126.111 292.879 127.661 296.658C129.211 300.437 133.484 302.224 137.204 300.65Z" fill="#E0E0E0"/>
<path d="M134.399 332.328C138.429 332.328 141.697 329.01 141.697 324.916C141.697 320.822 138.429 317.503 134.399 317.503C130.368 317.503 127.101 320.822 127.101 324.916C127.101 329.01 130.368 332.328 134.399 332.328Z" fill="#E0E0E0"/>
<path d="M134.399 363.444C138.429 363.444 141.697 360.125 141.697 356.031C141.697 351.937 138.429 348.619 134.399 348.619C130.368 348.619 127.101 351.937 127.101 356.031C127.101 360.125 130.368 363.444 134.399 363.444Z" fill="#E0E0E0"/>
<path d="M177.333 262.702C177.333 262.829 170.382 262.937 161.82 262.937C153.258 262.937 146.298 262.829 146.298 262.702C146.298 262.576 153.24 262.467 161.82 262.467C170.399 262.467 177.333 262.576 177.333 262.702Z" fill="#263238"/>
<path d="M177.333 293.8C177.333 293.936 170.382 294.035 161.82 294.035C153.258 294.035 146.298 293.936 146.298 293.8C146.298 293.664 153.24 293.565 161.82 293.565C170.399 293.565 177.333 293.682 177.333 293.8Z" fill="#263238"/>
<path d="M177.333 324.916C177.333 325.051 170.382 325.16 161.82 325.16C153.258 325.16 146.298 325.051 146.298 324.916C146.298 324.78 153.24 324.681 161.82 324.681C170.399 324.681 177.333 324.789 177.333 324.916Z" fill="#263238"/>
<path d="M177.333 356.031C177.333 356.158 170.382 356.266 161.82 356.266C153.258 356.266 146.298 356.158 146.298 356.031C146.298 355.905 153.24 355.796 161.82 355.796C170.399 355.796 177.333 355.896 177.333 356.031Z" fill="#263238"/>
<path d="M256.694 109.836C256.694 109.963 249.129 110.071 239.784 110.071C230.439 110.071 222.874 109.963 222.874 109.836C222.874 109.709 230.439 109.601 239.784 109.601C249.129 109.601 256.694 109.7 256.694 109.836Z" fill="white"/>
<path d="M262.995 109.022L264.294 110.83C264.335 110.898 264.392 110.953 264.46 110.992C264.527 111.031 264.604 111.051 264.682 111.051C264.759 111.051 264.836 111.031 264.903 110.992C264.971 110.953 265.028 110.898 265.069 110.83L266.146 109.022C266.188 108.95 266.21 108.868 266.211 108.784C266.212 108.7 266.191 108.617 266.151 108.543C266.11 108.47 266.051 108.409 265.98 108.366C265.909 108.323 265.828 108.3 265.745 108.299H263.378C263.296 108.303 263.218 108.328 263.149 108.373C263.08 108.417 263.024 108.478 262.985 108.551C262.947 108.624 262.927 108.705 262.929 108.788C262.931 108.871 262.953 108.951 262.995 109.022Z" fill="white"/>
<path d="M335.281 108.923L336.571 110.731C336.613 110.798 336.671 110.854 336.739 110.892C336.808 110.93 336.885 110.95 336.963 110.95C337.041 110.95 337.118 110.93 337.187 110.892C337.255 110.854 337.313 110.798 337.354 110.731L338.422 108.923C338.468 108.851 338.493 108.768 338.495 108.683C338.498 108.598 338.477 108.513 338.436 108.439C338.395 108.365 338.335 108.303 338.262 108.261C338.189 108.219 338.106 108.198 338.022 108.2H335.663C335.582 108.204 335.503 108.229 335.435 108.273C335.366 108.317 335.309 108.379 335.271 108.451C335.232 108.524 335.213 108.606 335.215 108.688C335.217 108.771 335.239 108.852 335.281 108.923Z" fill="#263238"/>
<path d="M275.633 132.951C275.633 133.078 262.212 133.186 245.649 133.186C229.086 133.186 215.665 133.078 215.665 132.951C215.665 132.825 229.086 132.716 245.649 132.716C262.212 132.716 275.633 132.816 275.633 132.951Z" fill="#EBEBEB"/>
<path d="M275.633 152.333C275.633 152.459 262.212 152.568 245.649 152.568C229.086 152.568 215.665 152.459 215.665 152.333C215.665 152.206 229.086 152.098 245.649 152.098C262.212 152.098 275.633 152.206 275.633 152.333Z" fill="#EBEBEB"/>
<path d="M275.633 171.76C275.633 171.896 262.212 171.995 245.649 171.995C229.086 171.995 215.665 171.896 215.665 171.76C215.665 171.624 229.086 171.525 245.649 171.525C262.212 171.525 275.633 171.588 275.633 171.76Z" fill="#EBEBEB"/>
<path d="M275.633 132.951H214.926V152.333H275.633V132.951Z" fill="#FF0000"/>
<path d="M266.653 126.849C266.653 126.976 257.441 127.084 246.085 127.084C234.729 127.084 225.508 126.976 225.508 126.849C225.508 126.723 234.72 126.614 246.085 126.614C257.45 126.614 266.653 126.714 266.653 126.849Z" fill="#263238"/>
<path d="M260.085 143.564C260.085 143.691 252.342 143.799 242.801 143.799C233.26 143.799 225.508 143.691 225.508 143.564C225.508 143.438 233.251 143.329 242.801 143.329C252.351 143.329 260.085 143.438 260.085 143.564Z" fill="white"/>
<path d="M266.653 162.024C266.653 162.159 257.441 162.259 246.085 162.259C234.729 162.259 225.508 162.159 225.508 162.024C225.508 161.888 234.72 161.789 246.085 161.789C257.45 161.789 266.653 161.897 266.653 162.024Z" fill="#263238"/>
<path d="M266.653 181.758C266.653 181.885 257.441 181.993 246.085 181.993C234.729 181.993 225.508 181.885 225.508 181.758C225.508 181.632 234.72 181.523 246.085 181.523C257.45 181.523 266.653 181.623 266.653 181.758Z" fill="#263238"/>
<path d="M265.353 145.155L267.133 143.835C267.198 143.793 267.251 143.734 267.287 143.666C267.324 143.597 267.343 143.52 267.343 143.442C267.343 143.364 267.324 143.287 267.287 143.219C267.251 143.15 267.198 143.092 267.133 143.049L265.353 141.955C265.282 141.912 265.201 141.889 265.118 141.888C265.036 141.887 264.954 141.908 264.882 141.95C264.81 141.991 264.75 142.051 264.707 142.123C264.665 142.195 264.642 142.278 264.641 142.362V144.766C264.645 144.849 264.67 144.929 264.714 144.999C264.757 145.069 264.818 145.126 264.889 145.165C264.961 145.204 265.041 145.224 265.123 145.222C265.204 145.22 265.284 145.197 265.353 145.155Z" fill="white"/>
<path d="M336.162 132.951H275.686V210.298H336.162V132.951Z" fill="#FAFAFA"/>
<path d="M336.171 210.288C336.171 210.288 336.171 210.162 336.171 209.918C336.171 209.674 336.171 209.303 336.171 208.833C336.171 207.866 336.171 206.455 336.171 204.629C336.171 200.941 336.171 195.589 336.117 188.782C336.117 175.222 336.055 155.895 336.011 132.951L336.224 133.159H275.704L275.936 132.924C275.936 161.563 275.936 188.177 275.936 210.261L275.74 210.071L319.608 210.171L331.863 210.225H335.094H336.224H335.138H331.943L319.724 210.279L275.74 210.379H275.553V210.18C275.553 188.095 275.553 161.481 275.508 132.843V132.608H275.749H336.269H336.42V132.825C336.376 155.822 336.34 175.177 336.313 188.8C336.313 195.571 336.269 200.923 336.26 204.584C336.26 206.392 336.26 207.793 336.26 208.752C336.26 209.213 336.26 209.565 336.26 209.809C336.26 210.053 336.171 210.288 336.171 210.288Z" fill="#EBEBEB"/>
<path d="M336.171 171.76C336.171 171.896 322.741 171.995 306.178 171.995C289.615 171.995 276.194 171.896 276.194 171.76C276.194 171.624 289.615 171.525 306.178 171.525C322.741 171.525 336.171 171.588 336.171 171.76Z" fill="#EBEBEB"/>
<path d="M336.171 191.865C336.171 192.001 322.741 192.1 306.178 192.1C289.615 192.1 276.194 192.001 276.194 191.865C276.194 191.729 289.615 191.648 306.16 191.648C322.705 191.648 336.171 191.738 336.171 191.865Z" fill="#EBEBEB"/>
<path d="M336.171 152.333C336.171 152.459 322.741 152.568 306.178 152.568C289.615 152.568 276.194 152.459 276.194 152.333C276.194 152.206 289.615 152.098 306.178 152.098C322.741 152.098 336.171 152.206 336.171 152.333Z" fill="#EBEBEB"/>
<path d="M327.182 143.564C327.182 143.691 317.97 143.799 306.614 143.799C295.258 143.799 286.046 143.691 286.046 143.564C286.046 143.438 295.249 143.329 306.614 143.329C317.979 143.329 327.182 143.438 327.182 143.564Z" fill="#263238"/>
<path d="M327.182 162.024C327.182 162.159 317.97 162.259 306.614 162.259C295.258 162.259 286.046 162.159 286.046 162.024C286.046 161.888 295.249 161.789 306.614 161.789C317.979 161.789 327.182 161.897 327.182 162.024Z" fill="#263238"/>
<path d="M336.278 190.672H275.571V210.822H336.278V190.672Z" fill="#FF0000"/>
<path d="M323.773 201.791C323.773 201.917 315.327 202.026 304.905 202.026C294.483 202.026 286.046 201.917 286.046 201.791C286.046 201.664 294.492 201.556 304.905 201.556C315.318 201.556 323.773 201.655 323.773 201.791Z" fill="white"/>
<path d="M327.182 181.758C327.182 181.885 317.97 181.993 306.614 181.993C295.258 181.993 286.046 181.885 286.046 181.758C286.046 181.632 295.249 181.523 306.614 181.523C317.979 181.523 327.182 181.623 327.182 181.758Z" fill="#263238"/>
<path d="M332.602 206.926L333.901 218.795L336.473 216.987L339.339 220.712L342.41 218.479L339.757 215.062L342.561 213.19L332.602 206.926Z" fill="#263238"/>
<path d="M333.305 205.036C333.371 204.332 333.586 203.65 333.937 203.038C334.409 201.99 334.88 201.23 334.996 201.23C334.93 201.935 334.715 202.617 334.364 203.228C333.892 204.304 333.421 205.09 333.305 205.036Z" fill="#263238"/>
<path d="M331.356 206.022C330.507 205.024 329.781 203.925 329.193 202.749C328.469 201.65 327.871 200.47 327.413 199.233C328.973 201.334 330.287 203.612 331.329 206.022H331.356Z" fill="#263238"/>
<path d="M329.914 207.658C329.275 207.757 328.624 207.738 327.992 207.603C327.344 207.621 326.698 207.517 326.087 207.296C326.707 207.049 327.385 206.992 328.036 207.133C328.699 207.123 329.35 207.305 329.914 207.658Z" fill="#263238"/>
<path d="M195.747 392.381C195.613 392.381 195.515 325.313 195.515 242.597C195.515 159.881 195.613 92.7955 195.747 92.7955C195.88 92.7955 195.978 159.854 195.978 242.597C195.978 325.34 195.871 392.381 195.747 392.381Z" fill="#263238"/>
<path d="M339.775 261.726C339.775 261.862 312.426 261.961 278.703 261.961C244.981 261.961 217.623 261.862 217.623 261.726C217.623 261.59 244.964 261.491 278.703 261.491C312.443 261.491 339.775 261.599 339.775 261.726Z" fill="#E0E0E0"/>
<path d="M339.775 233.666C339.775 233.792 312.426 233.901 278.703 233.901C244.981 233.901 217.623 233.792 217.623 233.666C217.623 233.539 244.964 233.431 278.703 233.431C312.443 233.431 339.775 233.53 339.775 233.666Z" fill="#E0E0E0"/>
<path d="M339.775 286.405C339.775 286.532 312.426 286.64 278.703 286.64C244.981 286.64 217.623 286.532 217.623 286.405C217.623 286.279 244.964 286.17 278.703 286.17C312.443 286.17 339.775 286.27 339.775 286.405Z" fill="#E0E0E0"/>
<path d="M339.775 312.983C339.775 313.118 312.426 313.218 278.703 313.218C244.981 313.218 217.623 313.118 217.623 312.983C217.623 312.847 244.964 312.748 278.703 312.748C312.443 312.748 339.775 312.856 339.775 312.983Z" fill="#E0E0E0"/>
<path d="M339.775 339.57C339.775 339.696 312.426 339.805 278.703 339.805C244.981 339.805 217.623 339.696 217.623 339.57C217.623 339.443 244.964 339.334 278.703 339.334C312.443 339.334 339.775 339.443 339.775 339.57Z" fill="#E0E0E0"/>
<path d="M330.973 109.547C330.973 109.673 322.803 109.782 312.737 109.782C302.671 109.782 294.492 109.673 294.492 109.547C294.492 109.42 302.653 109.312 312.737 109.312C322.821 109.312 330.973 109.384 330.973 109.547Z" fill="#263238"/>
<path d="M367.356 367.539C368.131 364.827 369.777 362.206 372.332 361.085C374.886 359.964 378.063 360.588 380.778 361.591C383.492 362.594 386.162 363.932 389.046 364.113C391.929 364.294 395.187 362.911 396.05 360.108C396.869 357.469 395.302 354.684 393.38 352.75C391.312 350.729 388.776 349.27 386.007 348.506C383.238 347.742 380.324 347.698 377.533 348.377C374.743 349.057 372.165 350.439 370.039 352.396C367.912 354.353 366.304 356.822 365.363 359.575" fill="#FF0000"/>
<g opacity="0.3">
<path d="M393.38 352.75C391.312 350.729 388.776 349.27 386.007 348.506C383.238 347.742 380.324 347.698 377.533 348.377C374.743 349.057 372.165 350.439 370.039 352.396C367.912 354.353 366.304 356.822 365.363 359.575L367.392 367.539C368.166 364.827 369.813 362.206 372.367 361.085C374.921 359.964 378.099 360.588 380.813 361.591C383.528 362.594 386.198 363.932 389.081 364.113C391.965 364.294 395.222 362.911 396.086 360.108C396.869 357.469 395.302 354.657 393.38 352.75Z" fill="black"/>
</g>
<path d="M344.492 379.318C340.265 375.232 340.469 368.118 342.588 362.585C344.706 357.053 349.307 352.813 354.451 350.011C359.479 347.333 365.038 345.845 370.711 345.661C376.385 345.476 382.027 346.598 387.212 348.944C384.673 349.055 382.199 349.797 380.008 351.105C377.817 352.413 375.976 354.248 374.646 356.447C372.323 360.352 371.806 365.108 369.893 369.239C367.73 373.899 363.893 377.541 359.169 379.417C354.445 381.293 349.194 381.261 344.492 379.327" fill="#FF0000"/>
<path d="M342.463 354.775C337.773 349.152 337.123 340.13 337.835 332.799C338.547 325.467 340.202 318.09 339.063 310.813C338.387 306.501 336.74 302.388 336.189 298.067C335.637 293.746 336.42 288.846 339.749 286.053C343.54 282.843 349.539 283.603 353.463 286.613C357.388 289.623 359.693 294.36 361.367 299.079C365.033 309.448 366.386 320.947 363.369 331.533C360.352 342.119 353.277 351.575 342.899 354.775" fill="#FF0000"/>
<path d="M340.211 400.879C340.192 400.665 340.192 400.45 340.211 400.237C340.211 399.812 340.211 399.179 340.211 398.375C340.274 396.766 340.425 394.433 340.781 391.568C341.19 388.222 341.784 384.902 342.561 381.624C343.525 377.589 345.022 373.706 347.011 370.08C349.019 366.459 351.478 363.117 354.327 360.136C356.651 357.705 359.222 355.532 361.999 353.654C363.173 352.831 364.304 352.207 365.283 351.629C366.262 351.05 367.152 350.662 367.864 350.309L369.555 349.586C369.749 349.499 369.948 349.423 370.151 349.36C369.969 349.477 369.779 349.58 369.581 349.667L367.935 350.445C367.232 350.815 366.368 351.276 365.381 351.828C364.393 352.379 363.307 353.057 362.15 353.889C356.047 358.123 350.983 363.724 347.349 370.26C343.042 377.917 341.858 385.972 341.003 391.613C340.612 394.469 340.425 396.784 340.318 398.393L340.211 400.246C340.226 400.457 340.226 400.668 340.211 400.879Z" fill="#263238"/>
<path d="M299.779 332.6C291.11 337.915 291.137 342.752 292.587 347.317C294.038 351.882 299.36 355.055 303.766 353.346C306.267 352.379 308.073 350.182 309.613 347.968C311.153 345.753 312.604 343.384 314.766 341.793C316.929 340.202 320.106 339.597 322.242 341.179" fill="#FF0000"/>
<g opacity="0.3">
<path d="M299.779 332.6C291.11 337.915 291.137 342.752 292.587 347.317C294.038 351.882 299.36 355.055 303.766 353.346C306.267 352.379 308.073 350.182 309.613 347.968C311.153 345.753 312.604 343.384 314.766 341.793C316.277 340.659 318.149 340.137 320.017 340.329L299.779 332.6Z" fill="black"/>
</g>
<path d="M320.017 340.329L322.242 341.179C321.581 340.713 320.817 340.421 320.017 340.329Z" fill="black"/>
<path d="M293.291 338.43C295.56 335.248 301.158 334.326 304.7 335.917C308.243 337.508 310.824 340.654 313.146 343.791C315.469 346.928 317.721 350.255 320.934 352.442C324.147 354.63 328.632 355.426 331.836 353.22C332.856 352.447 333.71 351.471 334.347 350.352C334.984 349.233 335.389 347.994 335.539 346.711C335.82 344.139 335.648 341.538 335.032 339.027C334.266 335.33 333.011 331.479 330.101 329.128C326.861 326.507 322.358 326.416 318.219 326.525C313.467 326.678 308.652 327.049 304.193 328.721C299.734 330.394 295.186 334.001 293.291 338.43Z" fill="#FF0000"/>
<path d="M333.002 393.828C333.002 393.828 333.002 393.764 333.002 393.629C333.002 393.493 333.002 393.294 333.002 393.068C333.002 392.535 332.958 391.803 332.931 390.881C332.878 388.946 332.798 386.207 332.7 382.835C332.602 379.463 332.459 375.404 332.219 370.92C331.979 366.436 331.641 361.519 330.973 356.384C330.691 353.89 330.211 351.423 329.54 349.007C328.849 346.774 327.955 344.61 326.87 342.544C325.906 340.668 324.783 338.88 323.515 337.201C322.405 335.745 321.181 334.382 319.857 333.124C317.925 331.302 315.739 329.779 313.369 328.604C312.942 328.414 312.577 328.215 312.239 328.08L311.393 327.745L310.877 327.528C310.761 327.483 310.699 327.456 310.708 327.447L310.886 327.492L311.42 327.673L312.31 327.971C312.648 328.098 313.031 328.279 313.458 328.468C315.872 329.594 318.102 331.088 320.071 332.898C321.419 334.157 322.666 335.524 323.8 336.984C325.088 338.675 326.231 340.474 327.217 342.363C328.301 344.445 329.195 346.624 329.887 348.872C330.57 351.31 331.056 353.802 331.338 356.321C332.014 361.464 332.326 366.4 332.557 370.884C332.789 375.368 332.887 379.418 332.958 382.817C333.029 386.216 333.056 388.955 333.065 390.853V393.041C333.065 393.276 333.065 393.466 333.065 393.611C333.054 393.686 333.033 393.759 333.002 393.828Z" fill="#263238"/>
<path d="M336.126 397.805C335.712 396.573 335.394 395.309 335.174 394.026C334.572 390.517 334.438 386.941 334.773 383.395C335.306 378.145 336.417 372.972 338.084 367.973C339.864 362.314 342.276 356.221 344.314 349.739C346.314 343.626 347.573 337.287 348.061 330.864C348.458 325.625 348.55 320.366 348.337 315.116C348.186 310.596 347.954 306.98 347.803 304.503C347.732 303.265 347.678 302.298 347.634 301.611C347.634 301.303 347.634 301.05 347.634 300.86C347.622 300.776 347.622 300.691 347.634 300.607C347.644 300.691 347.644 300.776 347.634 300.86C347.634 301.05 347.678 301.294 347.705 301.611C347.767 302.289 347.848 303.256 347.945 304.485C348.141 306.989 348.417 310.614 348.604 315.107C348.856 320.371 348.791 325.645 348.408 330.9C348.17 334.003 347.766 337.09 347.198 340.148C346.562 343.43 345.73 346.669 344.706 349.848C342.641 356.384 340.211 362.432 338.422 368.082C336.745 373.063 335.613 378.216 335.049 383.45C334.688 386.972 334.78 390.528 335.325 394.026C335.539 395.256 335.726 396.214 335.904 396.847C335.975 397.154 336.028 397.398 336.073 397.579C336.096 397.653 336.114 397.729 336.126 397.805Z" fill="#263238"/>
<path d="M362.177 396.675H310.699L309.524 386.614H362.177V396.675Z" fill="#455A64"/>
<path d="M316.226 395.527L322.661 425.721H350.633L356.659 395.527H316.226Z" fill="#455A64"/>
<path d="M362.177 396.675C362.177 396.811 350.865 396.892 336.901 396.856C322.936 396.82 311.625 396.666 311.625 396.531C311.625 396.395 322.945 396.314 336.901 396.359C350.856 396.404 362.177 396.54 362.177 396.675Z" fill="#455A64"/>
<path d="M353.33 411.582C351.931 410.514 350.406 409.627 348.791 408.943C347.034 408.24 345.169 407.858 343.282 407.813C340.965 407.821 338.668 408.25 336.5 409.078C334.159 409.883 331.961 410.823 329.834 411.338C327.938 411.752 325.984 411.814 324.067 411.519C322.79 411.322 321.552 410.919 320.4 410.326C320.09 410.154 319.793 409.961 319.51 409.747C319.314 409.602 319.225 409.512 319.234 409.503C319.243 409.494 319.67 409.756 320.489 410.145C321.655 410.668 322.89 411.013 324.156 411.166C326.029 411.41 327.93 411.318 329.772 410.895C331.836 410.371 334.026 409.422 336.393 408.608C338.612 407.76 340.965 407.334 343.335 407.351C345.274 407.42 347.183 407.849 348.969 408.617C350.168 409.125 351.296 409.79 352.324 410.597C352.605 410.816 352.872 411.051 353.125 411.302C353.268 411.474 353.33 411.564 353.33 411.582Z" fill="#263238"/>
<path d="M352.956 413.598C351.606 412.567 350.146 411.694 348.604 410.995C346.907 410.29 345.097 409.91 343.264 409.874C341.028 409.882 338.811 410.289 336.714 411.076C334.444 411.844 332.317 412.739 330.279 413.291C328.484 413.825 326.611 414.039 324.743 413.924C323.124 413.886 321.553 413.35 320.24 412.387C320.056 412.242 319.967 412.161 319.973 412.143C319.973 412.143 320.4 412.396 321.192 412.766C322.32 413.256 323.527 413.528 324.752 413.571C326.579 413.628 328.403 413.386 330.154 412.857C332.139 412.287 334.257 411.383 336.545 410.606C338.695 409.798 340.972 409.397 343.264 409.422C346.417 409.515 349.456 410.644 351.924 412.64C352.192 412.854 352.447 413.083 352.689 413.327C352.879 413.49 352.968 413.58 352.956 413.598Z" fill="white"/>
<path d="M353.855 409.575C352.408 408.477 350.848 407.543 349.2 406.791C347.407 406.008 345.496 405.54 343.549 405.408C341.159 405.359 338.782 405.786 336.553 406.664C334.297 407.562 331.991 408.325 329.647 408.951C327.677 409.301 325.663 409.301 323.693 408.951C322.363 408.743 321.072 408.328 319.866 407.722C319.557 407.549 319.26 407.356 318.976 407.143C318.866 407.075 318.767 406.989 318.682 406.89C318.682 406.845 319.136 407.152 319.982 407.55C321.196 408.074 322.474 408.43 323.782 408.608C325.713 408.891 327.676 408.851 329.594 408.49C331.91 407.844 334.192 407.074 336.429 406.185C338.697 405.31 341.115 404.904 343.54 404.992C345.535 405.143 347.488 405.655 349.307 406.502C350.53 407.059 351.68 407.766 352.734 408.608C353.025 408.83 353.301 409.072 353.561 409.331C353.67 409.398 353.769 409.48 353.855 409.575Z" fill="white"/>
<path d="M362.177 396.675C362.177 396.784 350.607 396.874 336.42 396.874C322.233 396.874 310.663 396.784 310.663 396.675C310.663 396.567 322.189 396.476 336.42 396.476C350.651 396.476 362.177 396.567 362.177 396.675Z" fill="#263238"/>
<path d="M200.57 399.767L199.244 416.88C199.244 416.88 215.861 423.642 215.914 426.824L183.224 425.784L184.212 399.026L200.57 399.767Z" fill="#FF0000"/>
<path d="M189.392 415.072C189.071 415.155 188.791 415.357 188.607 415.637C188.423 415.917 188.347 416.257 188.395 416.59C188.464 416.921 188.656 417.213 188.932 417.403C189.207 417.593 189.544 417.668 189.873 417.612C190.213 417.522 190.509 417.306 190.701 417.007C190.894 416.708 190.969 416.347 190.914 415.994C190.809 415.655 190.578 415.372 190.271 415.203C189.964 415.034 189.604 414.993 189.267 415.09" fill="#E0E0E0"/>
<path d="M183.224 425.784L183.304 423.651L215.015 425.332C215.298 425.526 215.538 425.777 215.72 426.069C215.902 426.362 216.023 426.689 216.074 427.032L183.224 425.784Z" fill="#F5F5F5"/>
<path d="M199.538 417.006C199.538 417.169 198.719 417.205 197.9 417.702C197.082 418.2 196.637 418.859 196.494 418.787C196.352 418.715 196.628 417.784 197.625 417.205C198.621 416.627 199.583 416.853 199.538 417.006Z" fill="#263238"/>
<path d="M202.92 418.606C202.92 418.769 202.244 419.013 201.665 419.682C201.087 420.351 200.9 421.074 200.775 421.065C200.651 421.056 200.553 420.161 201.282 419.302C202.012 418.444 202.92 418.453 202.92 418.606Z" fill="#263238"/>
<path d="M204.7 422.9C204.558 422.9 204.362 422.105 204.816 421.219C205.27 420.333 206.035 420.017 206.097 420.161C206.16 420.306 205.67 420.758 205.314 421.481C204.958 422.204 204.887 422.891 204.7 422.9Z" fill="#263238"/>
<path d="M199.413 413.038C199.342 413.182 198.612 412.929 197.696 412.956C196.779 412.983 196.058 413.237 195.987 413.092C195.916 412.947 196.61 412.396 197.687 412.378C198.764 412.36 199.502 412.911 199.413 413.038Z" fill="#263238"/>
<path d="M200.161 409.376C199.612 409.495 199.041 409.467 198.506 409.295C197.914 409.159 197.341 408.952 196.797 408.68C196.49 408.514 196.193 408.33 195.907 408.129C195.727 408.015 195.565 407.875 195.426 407.713C195.324 407.586 195.267 407.426 195.267 407.261C195.267 407.096 195.324 406.937 195.426 406.809C195.512 406.699 195.622 406.611 195.747 406.551C195.872 406.491 196.009 406.462 196.147 406.466C196.356 406.474 196.562 406.511 196.761 406.574C197.11 406.681 197.449 406.817 197.776 406.981C198.323 407.259 198.822 407.625 199.253 408.066C199.992 408.816 200.223 409.44 200.143 409.467C200.063 409.494 199.716 408.988 198.959 408.364C198.523 408.001 198.041 407.697 197.527 407.46C197.221 407.326 196.905 407.214 196.583 407.126C196.245 407.017 195.942 406.999 195.844 407.126C195.747 407.252 195.844 407.207 195.844 407.315C195.947 407.433 196.063 407.536 196.192 407.623C196.476 407.824 196.773 408.006 197.082 408.165C197.583 408.449 198.111 408.682 198.657 408.861C199.17 408.996 199.672 409.169 200.161 409.376Z" fill="#263238"/>
<path d="M159.31 399.767L157.984 416.88C157.984 416.88 174.591 423.642 174.654 426.824L141.946 425.784L142.934 399.026L159.31 399.767Z" fill="#FF0000"/>
<path d="M148.114 415.072C147.794 415.159 147.517 415.361 147.334 415.64C147.15 415.92 147.073 416.257 147.117 416.59C147.18 416.934 147.374 417.239 147.658 417.437C147.942 417.636 148.291 417.711 148.63 417.648C148.971 417.558 149.267 417.343 149.461 417.044C149.655 416.745 149.733 416.384 149.68 416.03C149.573 415.691 149.341 415.407 149.032 415.238C148.723 415.07 148.362 415.029 148.025 415.126" fill="#E0E0E0"/>
<path d="M141.946 425.784L142.026 423.651L173.746 425.332C174.027 425.527 174.266 425.779 174.448 426.071C174.63 426.363 174.752 426.69 174.805 427.032L141.946 425.784Z" fill="#F5F5F5"/>
<path d="M158.269 417.006C158.269 417.169 157.45 417.205 156.631 417.702C155.812 418.2 155.367 418.859 155.216 418.787C155.065 418.715 155.35 417.784 156.346 417.205C157.343 416.627 158.304 416.853 158.269 417.006Z" fill="#263238"/>
<path d="M161.669 418.606C161.669 418.769 160.983 419.013 160.414 419.682C159.844 420.351 159.648 421.074 159.524 421.065C159.399 421.056 159.301 420.161 160.031 419.302C160.761 418.444 161.669 418.453 161.669 418.606Z" fill="#263238"/>
<path d="M163.457 422.9C163.306 422.9 163.119 422.105 163.573 421.219C164.027 420.333 164.792 420.017 164.855 420.161C164.917 420.306 164.428 420.758 164.072 421.481C163.716 422.204 163.618 422.891 163.457 422.9Z" fill="#263238"/>
<path d="M158.144 413.038C158.064 413.182 157.334 412.929 156.426 412.956C155.519 412.983 154.789 413.237 154.709 413.092C154.629 412.947 155.341 412.396 156.418 412.378C157.494 412.36 158.224 412.911 158.144 413.038Z" fill="#263238"/>
<path d="M158.883 409.376C158.336 409.496 157.769 409.468 157.236 409.295C156.645 409.159 156.072 408.952 155.528 408.68C155.219 408.517 154.921 408.333 154.638 408.129C154.455 408.016 154.29 407.875 154.148 407.713C154.048 407.584 153.994 407.425 153.994 407.261C153.994 407.097 154.048 406.938 154.148 406.809C154.234 406.699 154.343 406.611 154.469 406.551C154.594 406.491 154.731 406.462 154.869 406.466C155.08 406.473 155.29 406.51 155.492 406.574C155.838 406.681 156.174 406.817 156.498 406.981C157.049 407.257 157.551 407.623 157.984 408.066C158.714 408.816 158.954 409.44 158.874 409.467C158.794 409.494 158.456 408.988 157.699 408.364C157.259 408.001 156.774 407.697 156.257 407.46C155.969 407.328 155.671 407.216 155.367 407.126C155.02 407.017 154.727 406.999 154.629 407.126C154.531 407.252 154.629 407.207 154.629 407.315C154.734 407.433 154.854 407.536 154.985 407.623C155.269 407.824 155.566 408.006 155.875 408.165C156.374 408.447 156.898 408.68 157.441 408.861C157.933 408.998 158.415 409.17 158.883 409.376Z" fill="#263238"/>
<path d="M183.518 251.384C185.058 253.337 216.199 327.14 216.199 334.552C216.199 341.965 204.558 411.175 204.558 411.175L183.198 410.425C183.198 410.425 181.613 373.216 183.536 362.278C185.458 351.34 186.864 336.704 186.864 336.704L156.248 281.84C156.248 281.84 152.786 260.759 156.248 254.512C159.711 248.266 183.518 251.384 183.518 251.384Z" fill="#455A64"/>
<path d="M185.44 308.391C185.44 309.177 174.315 340.754 172.5 350.517C170.684 360.28 162.523 411.989 162.523 411.989L141.234 410.416C141.234 410.416 143.157 355.634 146.619 340.808C150.081 325.982 152.769 313.471 152.769 304.883C152.769 296.295 150.099 296.268 151.264 283.983C152.43 271.697 165.068 267.783 165.068 267.783L185.44 308.391Z" fill="#455A64"/>
<path d="M170.221 303.943C170.302 304.423 170.433 304.893 170.613 305.344C170.889 306.248 171.343 307.505 171.939 309.06C173.493 313.12 175.276 317.086 177.279 320.938C179.289 324.788 181.517 328.516 183.954 332.102C184.898 333.477 185.681 334.57 186.241 335.312C186.507 335.707 186.805 336.079 187.131 336.424C186.931 335.979 186.68 335.561 186.384 335.176L184.248 331.886C182.468 329.083 180.092 325.16 177.742 320.667C175.392 316.174 173.523 311.979 172.251 308.915C171.654 307.45 171.156 306.203 170.755 305.299C170.622 304.83 170.443 304.376 170.221 303.943Z" fill="#263238"/>
<path d="M147.153 129.914C147.064 133.875 147.804 137.81 149.323 141.46C150.842 145.109 153.105 148.39 155.964 151.086L159.897 139.496" fill="#263238"/>
<path d="M176.843 106.862C173.363 105.093 169.387 104.607 165.593 105.488C161.835 106.377 158.245 107.886 154.967 109.954C153.04 110.959 151.316 112.324 149.885 113.976C147.429 117.113 144.999 122.266 144.767 126.262C144.572 129.498 145.791 137.598 147.144 140.536C148.372 143.248 154.157 145.282 157.005 145.96L183.189 115.034C182.716 113.313 181.912 111.705 180.823 110.302C179.733 108.899 178.381 107.73 176.843 106.862Z" fill="#263238"/>
<path d="M181.355 111.038L175.081 109.89C178.507 118.189 179.442 137.173 181.4 145.951C183.714 142.543 189.089 132.156 188.796 128.024C188.502 123.893 188.814 110.333 181.355 111.038Z" fill="#263238"/>
<path d="M184.942 124.562C184.533 118.234 180.358 110.387 174.111 111.075L159.666 114.808C157.438 115.375 155.449 116.657 153.995 118.463C152.541 120.269 151.699 122.503 151.594 124.833C151.594 125.068 151.594 124.779 151.594 124.96L154.824 162.973L165.673 184.841L175.25 161.906V156.392C175.25 156.392 183.26 155.018 184.897 144.405C185.672 139.108 185.396 131.641 184.942 124.562Z" fill="#FFBE9D"/>
<path d="M182.45 132.581C182.455 132.937 182.323 133.28 182.082 133.539C181.841 133.797 181.51 133.95 181.16 133.964C180.989 133.976 180.818 133.954 180.657 133.899C180.495 133.843 180.345 133.756 180.217 133.642C180.089 133.527 179.984 133.388 179.909 133.232C179.834 133.077 179.79 132.907 179.78 132.734C179.775 132.379 179.908 132.037 180.149 131.78C180.39 131.523 180.721 131.372 181.071 131.36C181.241 131.346 181.412 131.366 181.574 131.419C181.736 131.473 181.886 131.56 182.015 131.673C182.144 131.787 182.249 131.926 182.323 132.082C182.398 132.238 182.441 132.408 182.45 132.581Z" fill="#263238"/>
<path d="M183.34 128.721C183.171 128.901 182.156 128.142 180.715 128.142C179.273 128.142 178.214 128.892 178.045 128.712C177.875 128.531 178.142 128.314 178.596 127.97C179.218 127.525 179.963 127.291 180.723 127.301C181.473 127.298 182.205 127.535 182.815 127.979C183.34 128.368 183.456 128.639 183.34 128.721Z" fill="#263238"/>
<path d="M169.901 132.581C169.906 132.937 169.774 133.28 169.533 133.539C169.292 133.797 168.961 133.95 168.611 133.964C168.44 133.977 168.269 133.956 168.106 133.901C167.944 133.846 167.794 133.759 167.666 133.645C167.537 133.53 167.432 133.39 167.358 133.234C167.283 133.078 167.24 132.908 167.231 132.734C167.226 132.381 167.357 132.039 167.597 131.783C167.836 131.526 168.165 131.374 168.513 131.36C168.683 131.346 168.855 131.366 169.018 131.419C169.18 131.473 169.331 131.559 169.46 131.673C169.59 131.787 169.695 131.926 169.771 132.082C169.847 132.237 169.891 132.407 169.901 132.581Z" fill="#263238"/>
<path d="M169.678 128.721C169.509 128.901 168.486 128.142 167.008 128.151C165.531 128.16 164.516 128.892 164.338 128.712C164.16 128.531 164.427 128.314 164.89 127.97C165.512 127.525 166.257 127.291 167.017 127.301C167.767 127.298 168.499 127.535 169.109 127.979C169.607 128.368 169.759 128.639 169.678 128.721Z" fill="#263238"/>
<path d="M174.182 140.228C174.941 139.985 175.728 139.839 176.523 139.795C176.896 139.795 177.244 139.677 177.306 139.424C177.331 139.037 177.245 138.65 177.057 138.312L175.962 135.473C174.44 131.414 173.292 128.088 173.497 128.024C173.701 127.961 175.019 131.198 176.54 135.256C176.914 136.26 177.261 137.209 177.591 138.122C177.825 138.571 177.894 139.09 177.786 139.587C177.736 139.721 177.655 139.841 177.549 139.937C177.444 140.033 177.318 140.102 177.181 140.138C176.978 140.195 176.769 140.226 176.558 140.228C175.769 140.328 174.971 140.328 174.182 140.228Z" fill="#263238"/>
<path d="M161.357 152.595C161.357 152.595 164.757 159.89 175.214 158.869V156.392C170.338 156.456 165.54 155.141 161.357 152.595Z" fill="#EB996E"/>
<path d="M169.225 123.432C169.082 123.83 167.64 123.64 165.949 123.857C164.258 124.074 162.888 124.535 162.665 124.183C162.567 124.011 162.799 123.631 163.351 123.279C164.079 122.787 164.912 122.477 165.78 122.375C166.646 122.264 167.525 122.366 168.343 122.673C168.966 122.944 169.278 123.242 169.225 123.432Z" fill="#263238"/>
<path d="M182.904 124.246C182.646 124.571 181.658 124.246 180.456 124.246C179.255 124.246 178.249 124.472 178.018 124.128C177.92 123.957 178.08 123.622 178.516 123.306C179.106 122.919 179.799 122.727 180.501 122.754C181.203 122.766 181.884 123 182.45 123.423C182.877 123.74 183.011 124.083 182.904 124.246Z" fill="#263238"/>
<path d="M182.103 114.871C181.733 114.092 181.158 113.432 180.442 112.965C179.726 112.497 178.896 112.24 178.045 112.223C176.336 112.224 174.663 112.72 173.221 113.651C166.991 117.267 163.796 126.135 157.646 129.923C156.133 130.827 154.166 130.004 152.875 131.234C151.585 132.463 150.757 134.434 151.469 136.079C150.588 134.966 149.869 133.73 149.333 132.409C149.072 131.745 148.953 131.033 148.984 130.319C149.015 129.606 149.194 128.907 149.511 128.269C150.045 127.365 150.98 126.623 151.238 125.557C151.496 124.49 151.104 123.667 151.149 122.718C151.253 121.751 151.579 120.822 152.101 120.006C154.424 115.611 157.878 111.94 162.096 109.384C164.878 107.746 168.048 106.915 171.263 106.979C174.493 107.053 177.591 108.301 179.994 110.496C181.373 111.798 182.815 113.145 182.103 114.917" fill="#263238"/>
<path d="M153.027 132.536C152.92 132.237 147.464 130.239 147.393 136.152C147.322 141.865 153.009 140.744 153.018 140.581C153.027 140.418 153.027 132.536 153.027 132.536Z" fill="#FFBE9D"/>
<path d="M151.3 138.366C151.3 138.366 151.202 138.439 151.033 138.511C150.799 138.608 150.537 138.608 150.303 138.511C149.941 138.274 149.648 137.942 149.454 137.551C149.26 137.161 149.172 136.724 149.2 136.287C149.189 135.798 149.286 135.313 149.484 134.868C149.54 134.69 149.637 134.528 149.767 134.396C149.897 134.263 150.057 134.165 150.232 134.108C150.345 134.08 150.465 134.093 150.57 134.144C150.676 134.195 150.761 134.282 150.811 134.389C150.882 134.551 150.811 134.66 150.873 134.669C150.935 134.678 150.997 134.579 150.953 134.344C150.925 134.201 150.85 134.074 150.739 133.982C150.585 133.862 150.39 133.807 150.196 133.828C149.962 133.874 149.743 133.982 149.562 134.141C149.381 134.299 149.244 134.503 149.164 134.732C148.918 135.225 148.796 135.771 148.808 136.323C148.776 136.832 148.892 137.339 149.142 137.782C149.392 138.224 149.765 138.581 150.214 138.809C150.364 138.854 150.521 138.865 150.675 138.84C150.829 138.815 150.976 138.755 151.104 138.665C151.3 138.502 151.3 138.375 151.3 138.366Z" fill="#EB996E"/>
<path d="M150.793 129.597C150.911 129.545 151.024 129.481 151.131 129.408C151.345 129.272 151.674 129.082 152.074 128.802C153.18 127.975 154.197 127.033 155.109 125.991C156.441 124.428 157.683 122.789 158.829 121.082C160.215 118.996 161.769 117.03 163.475 115.206C164.385 114.295 165.391 113.488 166.475 112.801C167.49 112.172 168.578 111.671 169.714 111.31C171.638 110.685 173.661 110.433 175.677 110.568C177.038 110.652 178.382 110.919 179.673 111.364C180.136 111.508 180.474 111.662 180.715 111.753C180.831 111.811 180.953 111.856 181.079 111.888C180.971 111.815 180.854 111.754 180.732 111.707C180.397 111.54 180.052 111.392 179.7 111.264C178.41 110.773 177.059 110.469 175.686 110.36C173.646 110.199 171.594 110.439 169.643 111.066C168.485 111.423 167.375 111.927 166.341 112.566C165.24 113.262 164.219 114.081 163.297 115.007C161.574 116.837 160.013 118.819 158.634 120.928C157.506 122.636 156.285 124.278 154.976 125.846C154.083 126.895 153.091 127.852 152.012 128.703C151.629 128.992 151.309 129.191 151.122 129.344C151.004 129.417 150.894 129.502 150.793 129.597Z" fill="#455A64"/>
<path d="M152.19 131.216C151.966 132.772 152.156 134.361 152.742 135.817C153.454 137.209 155.243 138.149 156.578 137.372C157.672 136.739 157.993 135.32 158.18 134.063C158.714 130.447 158.954 126.732 159.524 123.098L152.19 131.216Z" fill="#263238"/>
<path d="M170.64 143.013C170.365 143.374 170.181 143.798 170.104 144.247C170.026 144.696 170.056 145.158 170.193 145.593C170.329 146.028 170.568 146.422 170.887 146.743C171.207 147.063 171.598 147.3 172.028 147.433C172.369 147.551 172.738 147.551 173.078 147.433C173.353 147.277 173.594 147.066 173.787 146.813C173.98 146.56 174.12 146.27 174.2 145.96C174.387 145.463 174.582 144.975 174.778 144.477C174.821 144.4 174.848 144.314 174.858 144.225C174.867 144.137 174.858 144.047 174.832 143.962C174.778 143.883 174.708 143.818 174.626 143.769C174.545 143.721 174.454 143.691 174.36 143.682L170.747 142.778" fill="#EB996E"/>
<path d="M172.998 147.271C172.444 147.35 171.879 147.279 171.361 147.063C170.752 146.864 170.238 146.442 169.919 145.878C169.736 145.529 169.662 145.132 169.705 144.739C169.723 144.332 169.819 143.933 169.99 143.564C170.148 143.203 170.378 142.88 170.666 142.615L170.764 142.525H170.88C173.274 143.429 175.143 143.817 175.125 143.926C173.624 143.83 172.147 143.498 170.747 142.94H170.96C170.718 143.175 170.522 143.455 170.382 143.763C170.23 144.06 170.142 144.385 170.124 144.719C170.105 145.052 170.157 145.386 170.275 145.698C170.539 146.19 170.964 146.574 171.476 146.782C172.366 147.144 173.016 147.189 172.998 147.271Z" fill="#263238"/>
<path d="M180.715 112.15C180.715 112.15 180.216 112.051 179.317 112.024C178.042 112.002 176.775 112.236 175.588 112.711C174.772 113.036 173.991 113.445 173.256 113.931C172.419 114.505 171.616 115.13 170.853 115.803C169.081 117.323 167.497 119.056 166.136 120.964C165.424 121.986 164.784 123.034 164.098 124.002C163.452 124.949 162.696 125.814 161.847 126.578C160.386 127.837 158.788 128.923 157.085 129.815C155.643 130.592 154.415 131.125 153.614 131.505L152.653 131.921C152.541 131.974 152.425 132.016 152.306 132.047C152.406 131.973 152.513 131.909 152.626 131.858L153.516 131.387C154.326 130.981 155.519 130.411 156.934 129.579C158.604 128.673 160.172 127.581 161.606 126.325C162.448 125.592 163.201 124.761 163.849 123.848C164.525 122.89 165.157 121.841 165.878 120.802C167.258 118.878 168.863 117.133 170.658 115.604C171.436 114.93 172.256 114.308 173.114 113.741C173.866 113.25 174.669 112.844 175.508 112.53C176.722 112.061 178.02 111.855 179.317 111.924C179.67 111.948 180.021 111.996 180.367 112.069C180.485 112.085 180.601 112.113 180.715 112.15Z" fill="#455A64"/>
<path d="M152.048 127.69C151.898 127.825 151.73 127.937 151.549 128.024L150.125 128.874L149.645 129.154C149.458 129.269 149.248 129.34 149.03 129.362C148.896 129.379 148.761 129.347 148.648 129.272C148.587 129.229 148.536 129.173 148.501 129.107C148.465 129.041 148.445 128.967 148.443 128.892C148.454 128.63 148.544 128.377 148.701 128.169L150.357 125.457L150.579 125.665C150.042 126.069 149.44 126.375 148.799 126.569C148.149 126.774 147.467 126.857 146.788 126.813C146.612 126.813 146.437 126.783 146.272 126.723C146.176 126.695 146.088 126.647 146.012 126.582C145.937 126.516 145.877 126.435 145.835 126.343C145.804 126.246 145.797 126.142 145.814 126.042C145.831 125.941 145.872 125.846 145.933 125.764C146.026 125.632 146.134 125.511 146.254 125.403C146.994 124.671 147.637 123.845 148.167 122.944C148.64 122.101 149.048 121.221 149.387 120.313C149.363 120.577 149.303 120.835 149.208 121.082C148.983 121.772 148.685 122.436 148.318 123.062C147.804 123.998 147.163 124.856 146.414 125.611C146.2 125.819 145.996 126.054 146.076 126.226C146.156 126.397 146.458 126.497 146.761 126.497C147.405 126.534 148.05 126.455 148.666 126.262C149.284 126.061 149.865 125.756 150.383 125.358L151.051 124.86L150.606 125.566L148.915 128.278C148.783 128.433 148.699 128.625 148.675 128.829C148.677 128.868 148.688 128.907 148.707 128.941C148.726 128.976 148.752 129.005 148.783 129.029C148.815 129.052 148.851 129.068 148.889 129.076C148.927 129.083 148.966 129.082 149.004 129.073C149.362 128.999 149.703 128.858 150.01 128.657L151.478 127.889C151.657 127.795 151.849 127.728 152.048 127.69Z" fill="#455A64"/>
<path d="M223.817 162.828C224.427 160.038 225.643 157.422 227.377 155.172C230.163 151.673 237.39 146.385 237.39 146.385C237.39 146.385 246.77 141.865 247.509 142.47C248.248 143.076 248.31 144.116 246.993 144.848C245.676 145.58 240.3 149.675 240.3 149.675C240.3 149.675 241.947 150.778 241.671 152.044C241.571 152.697 241.287 153.306 240.852 153.798C241.603 154.383 242.184 155.164 242.534 156.058C242.652 156.691 242.652 157.341 242.534 157.974C242.83 158.12 243.069 158.362 243.214 158.661C243.359 158.961 243.402 159.301 243.335 159.628C243.242 160.442 243.023 161.235 242.685 161.979C242.685 161.979 238.885 164.808 237.55 164.953C236.215 165.098 234.453 165.206 234.453 165.206L233.047 166.444L232.157 170.485L223.817 162.828Z" fill="#FFBE9D"/>
<path d="M141.67 203.192C142.302 196.258 141.955 194.062 143.005 185.591C143.949 178.043 147.802 165.36 152.795 159.683L175.161 162.53C175.541 163.966 175.992 165.381 176.514 166.77C177.572 169.642 178.88 172.413 180.421 175.051C184.159 181.379 189.73 188.674 190.718 192.371C190.825 192.787 191.857 225.403 191.857 225.403C191.857 225.403 194.394 249.866 196.708 258.191C199.022 266.517 201.514 273.93 201.158 276.642C200.802 279.354 196.708 281.903 196.708 281.903L189.134 271.634C188.903 271.322 188.605 271.068 188.261 270.893C187.917 270.718 187.538 270.628 187.154 270.628C186.769 270.628 186.39 270.718 186.046 270.893C185.703 271.068 185.404 271.322 185.173 271.634C183.28 274.18 181.724 276.967 180.545 279.924C177.68 287.083 171.877 300.951 168.361 305.055C163.555 310.66 161.241 307.224 161.241 307.224C161.241 307.224 144.99 286.098 143.406 277.528V277.609C140.736 273.84 141.012 210.406 141.67 203.192Z" fill="#FF0000"/>
<path d="M223.497 160.912C223.497 160.912 203.303 190.238 202.609 190.238C201.914 190.238 178.303 173.351 178.303 173.351C178.303 173.351 166.528 164.627 161.499 168.677C151.407 176.813 160.378 190.663 160.378 190.663C160.378 190.663 195.8 215.152 206.711 216.056C217.623 216.96 231.676 172.718 231.676 172.718L233.527 170.187L223.497 160.912Z" fill="#FF0000"/>
<path d="M203.347 201.041C204.363 197.433 204.111 193.578 202.635 190.138C202.484 190.138 203.231 192.543 203.418 195.562C203.605 198.582 203.196 201.014 203.347 201.041Z" fill="#263238"/>
<path d="M207.824 199.359C207.746 197.524 207.184 195.744 206.195 194.206C205.353 192.596 204.129 191.223 202.635 190.211C202.52 190.337 204.326 191.937 205.786 194.469C207.245 197 207.664 199.395 207.824 199.359Z" fill="#263238"/>
<path d="M176.149 165.541L175.962 167.258L150.864 162.304L151.309 155.154C151.309 155.154 151.309 153.165 153.676 153.165C154.851 153.165 175.17 158.345 175.926 158.878C177.938 160.207 176.149 165.541 176.149 165.541Z" fill="#FF0000"/>
<path d="M169.162 167.33C169.636 167.569 170.091 167.844 170.524 168.153L174.137 170.531C177.181 172.556 181.364 175.376 185.948 178.549C190.531 181.722 194.634 184.678 197.518 186.884C198.977 187.987 200.143 188.891 200.944 189.533C201.372 189.848 201.777 190.196 202.155 190.572C201.698 190.299 201.258 189.997 200.837 189.668L197.322 187.137C194.358 185.004 190.202 182.093 185.654 178.92L173.924 170.784L170.364 168.28C169.942 167.992 169.541 167.674 169.162 167.33Z" fill="#263238"/>
<path d="M162.567 192.742C162.976 192.92 163.366 193.138 163.733 193.393L166.839 195.3C169.456 196.918 173.069 199.16 177.101 201.547C181.133 203.933 184.835 206.067 187.523 207.513L190.709 209.276C191.114 209.469 191.498 209.702 191.857 209.972C191.433 209.833 191.022 209.654 190.629 209.439C189.855 209.068 188.742 208.535 187.372 207.812C184.639 206.401 180.91 204.358 176.87 201.954C172.829 199.549 169.234 197.28 166.661 195.581C165.38 194.74 164.339 194.035 163.635 193.547C163.258 193.309 162.9 193.04 162.567 192.742Z" fill="#263238"/>
<path d="M156.159 184.977C155.999 184.735 155.876 184.47 155.795 184.19C155.521 183.438 155.324 182.659 155.207 181.867C154.799 179.223 155.192 176.516 156.335 174.105C157.478 171.694 159.317 169.694 161.606 168.37C162.288 167.966 163.01 167.636 163.76 167.385C164.029 167.272 164.315 167.205 164.605 167.186C164.605 167.276 163.44 167.602 161.775 168.659C159.609 170.021 157.871 171.983 156.767 174.316C155.663 176.648 155.239 179.252 155.545 181.822C155.75 183.792 156.248 184.949 156.159 184.977Z" fill="#263238"/>
<path d="M150.837 162.178C151.126 161.989 151.441 161.846 151.772 161.753C152.669 161.463 153.599 161.29 154.54 161.237C155.933 161.167 157.329 161.273 158.696 161.554C160.355 161.907 161.988 162.378 163.582 162.964C165.282 163.561 166.884 164.157 168.37 164.6C169.676 165.011 171.012 165.313 172.366 165.504C173.624 165.627 174.888 165.648 176.149 165.568C175.827 165.695 175.488 165.771 175.143 165.794C174.211 165.894 173.272 165.894 172.34 165.794C170.957 165.66 169.589 165.397 168.255 165.007C166.742 164.582 165.131 163.995 163.431 163.398C161.855 162.817 160.243 162.34 158.607 161.97C156.044 161.353 153.367 161.422 150.837 162.169V162.178Z" fill="#263238"/>
<path d="M228.347 166.427C228.347 166.427 228.347 166.517 228.285 166.698L228.071 167.475C227.876 168.162 227.582 169.157 227.181 170.449C226.389 173.026 225.179 176.732 223.524 181.252C221.868 185.772 219.741 191.106 217.116 196.909C216.477 198.415 215.758 199.885 214.962 201.312C214.128 202.857 212.861 204.115 211.322 204.928C209.666 205.65 207.819 205.783 206.08 205.308C204.323 204.856 202.635 204.165 201.06 203.255C195.139 199.811 189.457 195.96 184.052 191.729C179.015 187.933 174.449 184.497 170.408 182.03C167.244 179.998 163.923 178.232 160.476 176.75C159.266 176.19 158.269 175.9 157.628 175.62L156.889 175.331C156.803 175.303 156.719 175.267 156.64 175.222C156.729 175.23 156.816 175.252 156.898 175.286L157.655 175.53C158.313 175.783 159.319 176.045 160.538 176.578C164.024 177.989 167.383 179.704 170.577 181.704C174.663 184.199 179.255 187.562 184.31 191.341C189.709 195.543 195.379 199.372 201.282 202.803C202.817 203.694 204.464 204.369 206.177 204.81C207.82 205.271 209.567 205.153 211.135 204.476C212.594 203.709 213.794 202.516 214.579 201.05C215.373 199.64 216.092 198.189 216.733 196.701C219.403 190.916 221.512 185.609 223.212 181.107C224.912 176.606 226.167 172.917 227.012 170.368C227.422 169.111 227.751 168.126 227.982 167.421C228.089 167.105 228.169 166.851 228.241 166.653C228.267 166.573 228.303 166.497 228.347 166.427Z" fill="white"/>
<path d="M150.819 291.73C150.819 291.73 150.775 291.676 150.713 291.567L150.41 291.088C150.17 290.618 149.769 289.949 149.342 289.036C148.209 286.366 147.315 283.598 146.672 280.764C144.963 273.532 143.753 262.983 143.824 250.643C143.441 243.646 143.165 235.953 143.13 227.917C143.13 223.397 143.13 219.066 143.246 214.845C143.361 210.623 143.441 206.555 143.699 202.677C144.103 195.809 145.023 188.982 146.45 182.256C147.411 177.72 148.684 173.259 150.259 168.903C150.828 167.367 151.291 166.191 151.638 165.396C151.798 165.016 151.932 164.718 152.03 164.492C152.068 164.385 152.116 164.283 152.172 164.185C152.152 164.296 152.119 164.406 152.074 164.51L151.727 165.414C151.407 166.219 150.971 167.403 150.428 168.949C148.921 173.316 147.699 177.779 146.77 182.31C145.383 189.025 144.491 195.836 144.1 202.686C143.851 206.555 143.771 210.623 143.673 214.845C143.575 219.066 143.539 223.424 143.566 227.898C143.566 235.926 143.869 243.601 144.233 250.598C144.127 262.892 145.275 273.415 146.903 280.647C147.519 283.474 148.374 286.241 149.458 288.918C149.858 289.822 150.232 290.519 150.455 290.998C150.552 291.224 150.641 291.395 150.704 291.54L150.819 291.73Z" fill="white"/>
<path d="M157.53 247.777C157.484 247.596 157.448 247.412 157.423 247.226C157.37 246.819 157.299 246.322 157.201 245.635L157.058 244.487C157.014 244.062 156.996 243.583 156.96 243.113C156.898 242.118 156.791 240.997 156.809 239.75C156.809 239.117 156.809 238.466 156.809 237.788C156.809 237.11 156.854 236.396 156.871 235.664C156.871 234.199 157.041 232.635 157.156 230.99C157.45 227.709 157.904 224.111 158.456 220.35C159.007 216.589 159.55 213.019 160.04 209.764C160.529 206.51 160.832 203.563 161.028 201.086C161.161 199.847 161.197 198.726 161.259 197.741C161.321 196.756 161.357 195.933 161.366 195.21C161.375 194.487 161.366 194.016 161.41 193.601C161.405 193.415 161.423 193.23 161.464 193.049C161.484 193.232 161.484 193.417 161.464 193.601C161.464 194.016 161.464 194.55 161.464 195.21C161.464 195.87 161.464 196.756 161.464 197.75C161.464 198.744 161.41 199.865 161.304 201.113C161.152 203.599 160.832 206.537 160.414 209.818C159.995 213.1 159.435 216.662 158.874 220.422C158.313 224.183 157.859 227.763 157.539 231.026C157.414 232.662 157.254 234.217 157.21 235.682C157.21 236.414 157.138 237.119 157.121 237.797C157.103 238.475 157.121 239.117 157.121 239.741C157.121 240.988 157.174 242.109 157.21 243.095C157.21 243.583 157.21 243.999 157.272 244.469C157.334 244.939 157.343 245.264 157.379 245.617C157.432 246.268 157.477 246.801 157.512 247.217C157.543 247.402 157.549 247.591 157.53 247.777Z" fill="white"/>
<path d="M165.638 302.469C165.527 302.325 165.434 302.167 165.362 301.999L164.641 300.607C164.321 300.001 163.956 299.251 163.582 298.356C163.208 297.461 162.692 296.467 162.327 295.319C161.962 294.171 161.437 292.923 161.019 291.54C160.601 290.157 160.191 288.683 159.782 287.119C158.124 280.286 157.524 273.231 158.002 266.21C158.144 264.601 158.251 263.064 158.473 261.636C158.696 260.207 158.892 258.924 159.132 257.694C159.372 256.465 159.63 255.416 159.853 254.476C160.075 253.536 160.307 252.731 160.512 252.08C160.716 251.43 160.868 250.968 160.983 250.58C161.035 250.403 161.1 250.231 161.179 250.064C161.168 250.249 161.132 250.432 161.072 250.607C160.974 251.005 160.85 251.511 160.69 252.126C160.529 252.74 160.298 253.59 160.102 254.539C159.906 255.488 159.63 256.555 159.452 257.758C159.274 258.96 159.007 260.271 158.856 261.69C158.705 263.109 158.554 264.637 158.429 266.21C158.242 269.695 158.283 273.189 158.554 276.669C158.87 280.153 159.42 283.612 160.2 287.02C160.592 288.575 160.939 290.066 161.384 291.422C161.829 292.778 162.22 294.053 162.63 295.201C163.039 296.349 163.466 297.353 163.822 298.257C164.178 299.161 164.508 299.911 164.801 300.526L165.442 301.963C165.522 302.126 165.587 302.295 165.638 302.469Z" fill="white"/>
<path d="M183.634 261.464C183.593 261.268 183.576 261.068 183.58 260.867C183.58 260.433 183.58 259.864 183.518 259.159C183.518 257.622 183.411 255.498 183.34 252.894C183.18 247.597 182.904 240.292 182.45 232.229C181.996 224.165 181.355 216.861 180.866 211.599C180.626 209.005 180.43 206.88 180.287 205.353C180.225 204.657 180.172 204.087 180.136 203.653C180.114 203.455 180.114 203.255 180.136 203.057C180.195 203.248 180.233 203.445 180.252 203.644C180.305 204.078 180.385 204.639 180.483 205.335C180.679 206.799 180.928 208.951 181.213 211.563C181.783 216.833 182.441 224.12 182.931 232.192C183.42 240.265 183.652 247.56 183.723 252.885C183.723 255.534 183.723 257.676 183.723 259.159C183.723 259.864 183.723 260.424 183.723 260.867C183.708 261.068 183.679 261.268 183.634 261.464Z" fill="white"/>
<path d="M181.8 276.47C181.344 275.807 180.987 275.079 180.741 274.31C180.038 272.486 179.554 270.583 179.299 268.642C179.047 266.702 179.029 264.737 179.246 262.793C179.291 261.982 179.45 261.181 179.718 260.415C179.71 261.219 179.66 262.022 179.566 262.82C179.33 266.672 179.832 270.534 181.044 274.192C181.335 274.938 181.587 275.698 181.8 276.47Z" fill="white"/>
<g opacity="0.3">
<path d="M191.35 209.728C185.173 209.168 180.359 208.562 174.698 205.976C169.038 203.391 163.707 198.952 162.567 192.76C172.66 198.265 181.249 204.187 191.35 209.728Z" fill="black"/>
</g>
<path d="M161.384 168.379C161.067 167.351 160.803 166.307 160.592 165.251C160.12 163.552 159.506 162.241 159.63 162.178C160.326 163.03 160.809 164.041 161.037 165.125C161.405 166.166 161.524 167.282 161.384 168.379Z" fill="white"/>
<g opacity="0.3">
<path d="M175.864 166.426C175.597 165.694 174.6 165.685 173.826 165.739C170.008 165.993 166.332 164.465 162.728 163.154C159.123 161.843 155.198 160.731 151.531 161.843V162.096C155.041 163.904 158.843 165.052 162.754 165.486C166.101 165.857 169.607 165.721 172.651 167.186C173.264 167.573 173.961 167.802 174.68 167.855C175.375 167.819 176.113 167.113 175.864 166.426Z" fill="black"/>
</g>
<g opacity="0.3">
<path d="M208.02 194.36C206.875 192.401 205.06 190.939 202.92 190.256L202.778 190.491C205.658 193.121 207.481 196.74 207.895 200.652C207.895 201.077 208.118 201.637 208.527 201.556C208.936 201.474 208.981 201.158 209.052 200.851C209.499 198.632 209.132 196.323 208.02 194.36Z" fill="black"/>
</g>
<path d="M187.923 265.776C187.5 265.508 187.098 265.206 186.722 264.872C186.357 264.538 185.894 264.158 185.342 263.706C184.791 263.254 184.185 262.748 183.482 262.214C182.094 261.111 180.376 259.891 178.454 258.598C176.531 257.306 174.333 255.941 171.992 254.603C169.652 253.265 167.356 252.117 165.255 251.113C163.155 250.11 161.206 249.305 159.55 248.681C158.74 248.347 157.984 248.085 157.325 247.85C156.667 247.615 156.097 247.416 155.625 247.271C155.133 247.133 154.651 246.958 154.184 246.747C154.691 246.817 155.191 246.932 155.679 247.09C156.159 247.208 156.738 247.389 157.405 247.606C158.073 247.823 158.838 248.058 159.666 248.365C161.339 248.944 163.288 249.766 165.433 250.715C167.578 251.665 169.883 252.858 172.224 254.187C174.565 255.516 176.754 256.899 178.694 258.237C180.634 259.575 182.316 260.849 183.687 261.988C184.381 262.54 184.986 263.073 185.512 263.543C186.037 264.013 186.491 264.447 186.847 264.773C187.228 265.081 187.588 265.416 187.923 265.776Z" fill="#263238"/>
<g opacity="0.3">
<path d="M154.86 246.792C154.71 246.664 154.59 246.504 154.507 246.324C154.425 246.143 154.382 245.947 154.382 245.748C154.382 245.549 154.425 245.353 154.507 245.172C154.59 244.992 154.71 244.832 154.86 244.704C155.183 244.466 155.562 244.319 155.959 244.278C156.356 244.237 156.757 244.303 157.121 244.469C157.841 244.816 158.507 245.27 159.096 245.816C165.46 251.023 173.71 253.346 180.296 258.255C182.076 259.611 183.856 261.184 186.055 261.699C186.802 261.88 187.746 262.079 187.915 262.838C188.084 263.597 187.247 264.203 186.517 264.14C185.79 264.004 185.12 263.648 184.595 263.118C175.837 255.742 165.733 250.194 154.86 246.792Z" fill="black"/>
</g>
</svg>
